<svg width="186" height="52" viewBox="0 0 186 52" fill="none" xmlns="http://www.w3.org/2000/svg">
<path d="M37.4434 9.94922H169.486C178.384 9.94922 185.597 17.1627 185.597 26.061C185.597 34.9592 178.384 42.1727 169.486 42.1727H37.4434V9.94922Z" fill="#FFFAFA"/>
<ellipse cx="26.1235" cy="26.0613" rx="25.7212" ry="25.1746" fill="#D90BC6"/>
<g clip-path="url(#clip0_409_157)">
<g clip-path="url(#clip1_409_157)">
<path d="M66.7924 20.8996C66.9228 20.6354 66.988 20.5033 67.0765 20.4611C67.1535 20.4244 67.243 20.4244 67.32 20.4611C67.4086 20.5033 67.4737 20.6354 67.6041 20.8996L68.8413 23.4061C68.8798 23.484 68.899 23.5231 68.9272 23.5533C68.9521 23.5801 68.982 23.6019 69.0151 23.6173C69.0527 23.6347 69.0957 23.641 69.1817 23.6536L71.9492 24.0581C72.2406 24.1007 72.3863 24.122 72.4538 24.1932C72.5124 24.2551 72.54 24.3402 72.5288 24.4248C72.516 24.522 72.4105 24.6247 72.1995 24.8302L70.1977 26.7799C70.1354 26.8407 70.1041 26.8711 70.084 26.9072C70.0661 26.9393 70.0547 26.9744 70.0503 27.0109C70.0453 27.052 70.0527 27.0948 70.0674 27.1806L70.5398 29.9347C70.5896 30.225 70.6145 30.3703 70.5676 30.4564C70.5269 30.5315 70.4546 30.5841 70.3706 30.5996C70.2742 30.6176 70.1437 30.5489 69.8829 30.4117L67.4089 29.1106C67.3318 29.0701 67.2933 29.0499 67.2527 29.0418C67.2167 29.0348 67.1797 29.0348 67.1438 29.0418C67.1032 29.0499 67.0647 29.0701 66.9876 29.1106L64.5135 30.4117C64.2527 30.5489 64.1223 30.6176 64.0258 30.5996C63.9419 30.5841 63.8695 30.5315 63.8288 30.4564C63.782 30.3703 63.8069 30.225 63.8567 29.9347L64.3291 27.1806C64.3438 27.0948 64.3511 27.052 64.3462 27.0109C64.3418 26.9744 64.3303 26.9393 64.3125 26.9072C64.2924 26.8711 64.2612 26.8407 64.1988 26.7799L62.197 24.8302C61.986 24.6247 61.8805 24.522 61.8677 24.4248C61.8565 24.3402 61.8841 24.2551 61.9428 24.1932C62.0102 24.122 62.1559 24.1007 62.4473 24.0581L65.2148 23.6536C65.3008 23.641 65.3439 23.6347 65.3813 23.6173C65.4145 23.6019 65.4444 23.5801 65.4693 23.5533C65.4974 23.5231 65.5167 23.484 65.5552 23.4061L66.7924 20.8996Z" fill="#F800EA"/>
<path d="M91.6868 20.8996C91.8172 20.6354 91.8825 20.5033 91.971 20.4611C92.0479 20.4244 92.1374 20.4244 92.2145 20.4611C92.303 20.5033 92.3682 20.6354 92.4986 20.8996L93.7358 23.4061C93.7743 23.484 93.7935 23.5231 93.8217 23.5533C93.8466 23.5801 93.8764 23.6019 93.9096 23.6173C93.9472 23.6347 93.9902 23.641 94.0762 23.6536L96.8437 24.0581C97.1351 24.1007 97.2808 24.122 97.3482 24.1932C97.4069 24.2551 97.4345 24.3402 97.4233 24.4248C97.4105 24.522 97.305 24.6247 97.094 24.8302L95.0922 26.7799C95.0299 26.8407 94.9986 26.8711 94.9785 26.9072C94.9606 26.9393 94.9492 26.9744 94.9448 27.0109C94.9398 27.052 94.9472 27.0948 94.9619 27.1806L95.4343 29.9347C95.4841 30.225 95.509 30.3703 95.4621 30.4564C95.4214 30.5315 95.3491 30.5841 95.2651 30.5996C95.1687 30.6176 95.0382 30.5489 94.7774 30.4117L92.3034 29.1106C92.2263 29.0701 92.1878 29.0499 92.1472 29.0418C92.1112 29.0348 92.0742 29.0348 92.0383 29.0418C91.9977 29.0499 91.9591 29.0701 91.882 29.1106L89.4081 30.4117C89.1472 30.5489 89.0168 30.6176 88.9204 30.5996C88.8364 30.5841 88.7641 30.5315 88.7234 30.4564C88.6765 30.3703 88.7014 30.225 88.7512 29.9347L89.2235 27.1806C89.2383 27.0948 89.2457 27.052 89.2407 27.0109C89.2363 26.9744 89.2249 26.9393 89.207 26.9072C89.1868 26.8711 89.1556 26.8407 89.0933 26.7799L87.0915 24.8302C86.8805 24.6247 86.775 24.522 86.7622 24.4248C86.751 24.3402 86.7786 24.2551 86.8372 24.1932C86.9047 24.122 87.0504 24.1007 87.3418 24.0581L90.1093 23.6536C90.1953 23.641 90.2383 23.6347 90.2759 23.6173C90.309 23.6019 90.3389 23.5801 90.3638 23.5533C90.392 23.5231 90.4112 23.484 90.4497 23.4061L91.6868 20.8996Z" fill="#F800EA"/>
<path d="M116.581 20.8996C116.712 20.6354 116.777 20.5033 116.866 20.4611C116.942 20.4244 117.032 20.4244 117.109 20.4611C117.198 20.5033 117.263 20.6354 117.393 20.8996L118.63 23.4061C118.669 23.484 118.688 23.5231 118.716 23.5533C118.741 23.5801 118.771 23.6019 118.804 23.6173C118.842 23.6347 118.885 23.641 118.971 23.6536L121.738 24.0581C122.03 24.1007 122.175 24.122 122.243 24.1932C122.301 24.2551 122.329 24.3402 122.318 24.4248C122.305 24.522 122.2 24.6247 121.989 24.8302L119.987 26.7799C119.924 26.8407 119.893 26.8711 119.873 26.9072C119.855 26.9393 119.844 26.9744 119.839 27.0109C119.834 27.052 119.842 27.0948 119.856 27.1806L120.329 29.9347C120.379 30.225 120.404 30.3703 120.357 30.4564C120.316 30.5315 120.244 30.5841 120.16 30.5996C120.063 30.6176 119.933 30.5489 119.672 30.4117L117.198 29.1106C117.121 29.0701 117.082 29.0499 117.042 29.0418C117.006 29.0348 116.969 29.0348 116.933 29.0418C116.892 29.0499 116.854 29.0701 116.777 29.1106L114.303 30.4117C114.042 30.5489 113.911 30.6176 113.815 30.5996C113.731 30.5841 113.659 30.5315 113.618 30.4564C113.571 30.3703 113.596 30.225 113.646 29.9347L114.118 27.1806C114.133 27.0948 114.14 27.052 114.135 27.0109C114.131 26.9744 114.119 26.9393 114.102 26.9072C114.081 26.8711 114.05 26.8407 113.988 26.7799L111.986 24.8302C111.775 24.6247 111.67 24.522 111.657 24.4248C111.646 24.3402 111.673 24.2551 111.732 24.1932C111.799 24.122 111.945 24.1007 112.236 24.0581L115.004 23.6536C115.09 23.641 115.133 23.6347 115.17 23.6173C115.204 23.6019 115.233 23.5801 115.258 23.5533C115.287 23.5231 115.306 23.484 115.344 23.4061L116.581 20.8996Z" fill="#F800EA"/>
<path d="M141.476 20.8996C141.606 20.6354 141.672 20.5033 141.76 20.4611C141.837 20.4244 141.927 20.4244 142.004 20.4611C142.092 20.5033 142.157 20.6354 142.288 20.8996L143.525 23.4061C143.563 23.484 143.583 23.5231 143.611 23.5533C143.636 23.5801 143.666 23.6019 143.699 23.6173C143.736 23.6347 143.779 23.641 143.865 23.6536L146.633 24.0581C146.924 24.1007 147.07 24.122 147.137 24.1932C147.196 24.2551 147.224 24.3402 147.212 24.4248C147.2 24.522 147.094 24.6247 146.883 24.8302L144.881 26.7799C144.819 26.8407 144.788 26.8711 144.768 26.9072C144.75 26.9393 144.738 26.9744 144.734 27.0109C144.729 27.052 144.736 27.0948 144.751 27.1806L145.223 29.9347C145.273 30.225 145.298 30.3703 145.251 30.4564C145.21 30.5315 145.138 30.5841 145.054 30.5996C144.958 30.6176 144.827 30.5489 144.566 30.4117L142.093 29.1106C142.015 29.0701 141.977 29.0499 141.936 29.0418C141.9 29.0348 141.863 29.0348 141.827 29.0418C141.787 29.0499 141.748 29.0701 141.671 29.1106L139.197 30.4117C138.936 30.5489 138.806 30.6176 138.709 30.5996C138.625 30.5841 138.553 30.5315 138.512 30.4564C138.466 30.3703 138.49 30.225 138.54 29.9347L139.013 27.1806C139.027 27.0948 139.035 27.052 139.03 27.0109C139.025 26.9744 139.014 26.9393 138.996 26.9072C138.976 26.8711 138.945 26.8407 138.882 26.7799L136.881 24.8302C136.67 24.6247 136.564 24.522 136.551 24.4248C136.54 24.3402 136.568 24.2551 136.626 24.1932C136.694 24.122 136.839 24.1007 137.131 24.0581L139.898 23.6536C139.984 23.641 140.027 23.6347 140.065 23.6173C140.098 23.6019 140.128 23.5801 140.153 23.5533C140.181 23.5231 140.2 23.484 140.239 23.4061L141.476 20.8996Z" fill="#F800EA"/>
<path d="M166.37 20.8996C166.501 20.6354 166.566 20.5033 166.655 20.4611C166.732 20.4244 166.821 20.4244 166.898 20.4611C166.987 20.5033 167.052 20.6354 167.182 20.8996L168.419 23.4061C168.458 23.484 168.477 23.5231 168.505 23.5533C168.53 23.5801 168.56 23.6019 168.593 23.6173C168.631 23.6347 168.674 23.641 168.76 23.6536L171.527 24.0581C171.819 24.1007 171.965 24.122 172.031 24.1932C172.09 24.2551 172.119 24.3402 172.107 24.4248C172.094 24.522 171.988 24.6247 171.778 24.8302L169.776 26.7799C169.713 26.8407 169.682 26.8711 169.662 26.9072C169.644 26.9393 169.633 26.9744 169.628 27.0109C169.623 27.052 169.631 27.0948 169.645 27.1806L170.118 29.9347C170.168 30.225 170.193 30.3703 170.146 30.4564C170.105 30.5315 170.033 30.5841 169.949 30.5996C169.852 30.6176 169.722 30.5489 169.461 30.4117L166.987 29.1106C166.91 29.0701 166.871 29.0499 166.831 29.0418C166.795 29.0348 166.758 29.0348 166.722 29.0418C166.681 29.0499 166.643 29.0701 166.566 29.1106L164.092 30.4117C163.831 30.5489 163.7 30.6176 163.604 30.5996C163.52 30.5841 163.448 30.5315 163.407 30.4564C163.36 30.3703 163.385 30.225 163.435 29.9347L163.907 27.1806C163.922 27.0948 163.929 27.052 163.924 27.0109C163.92 26.9744 163.908 26.9393 163.891 26.9072C163.87 26.8711 163.839 26.8407 163.777 26.7799L161.775 24.8302C161.564 24.6247 161.459 24.522 161.446 24.4248C161.435 24.3402 161.462 24.2551 161.521 24.1932C161.588 24.122 161.734 24.1007 162.025 24.0581L164.793 23.6536C164.879 23.641 164.922 23.6347 164.959 23.6173C164.993 23.6019 165.023 23.5801 165.047 23.5533C165.076 23.5231 165.095 23.484 165.133 23.4061L166.37 20.8996Z" fill="#F800EA"/>
</g>
</g>
<path d="M14.9552 28.8331V27.157L19.8927 19.3558H21.2904V21.7422H20.4381L17.1143 27.0092V27.1001H24.0063V28.8331H14.9552ZM20.5063 30.9922V28.3217L20.529 27.5717V19.3558H22.5177V30.9922H20.5063ZM26.7833 31.1172C26.4386 31.1172 26.1431 30.996 25.8969 30.7536C25.6507 30.5111 25.5295 30.2157 25.5333 29.8672C25.5295 29.5263 25.6507 29.2346 25.8969 28.9922C26.1431 28.7498 26.4386 28.6286 26.7833 28.6286C27.1166 28.6286 27.4064 28.7498 27.6526 28.9922C27.9026 29.2346 28.0295 29.5263 28.0333 29.8672C28.0295 30.0982 27.9689 30.3085 27.8515 30.4979C27.7378 30.6873 27.5863 30.8388 27.3969 30.9524C27.2113 31.0623 27.0068 31.1172 26.7833 31.1172ZM30.1853 30.9922L35.1342 21.1967V21.1172H29.3898V19.3558H37.316V21.157L32.3728 30.9922H30.1853Z" fill="white"/>
<defs>
<clipPath id="clip0_409_157">
<rect width="123.462" height="21.6501" fill="white" transform="translate(56.9883 14.9844)"/>
</clipPath>
<clipPath id="clip1_409_157">
<rect width="120" height="21.5" fill="white" transform="translate(56.9883 14.9844)"/>
</clipPath>
</defs>
</svg>
