<svg width="120" height="22" viewBox="0 0 120 22" fill="none" xmlns="http://www.w3.org/2000/svg">
<g clip-path="url(#clip0_271_3795)">
<g clip-path="url(#clip1_271_3795)">
<g clip-path="url(#clip2_271_3795)">
<path d="M10.2106 20.9338C15.8352 20.9338 20.3948 16.3742 20.3948 10.7496C20.3948 5.12506 15.8352 0.56543 10.2106 0.56543C4.58599 0.56543 0.0263672 5.12506 0.0263672 10.7496C0.0263672 16.3742 4.58599 20.9338 10.2106 20.9338Z" fill="white"/>
<path d="M9.8051 5.91428C9.93546 5.65009 10.0007 5.51799 10.0892 5.47578C10.1662 5.43906 10.2557 5.43906 10.3327 5.47578C10.4212 5.51799 10.4864 5.65009 10.6168 5.91428L11.854 8.4207C11.8925 8.49869 11.9117 8.5377 11.9399 8.56798C11.9648 8.59479 11.9946 8.61651 12.0278 8.63194C12.0654 8.64936 12.1084 8.65565 12.1944 8.66824L14.9619 9.07274C15.2533 9.11534 15.399 9.13662 15.4664 9.20781C15.5251 9.26973 15.5527 9.35484 15.5415 9.43941C15.5287 9.53661 15.4232 9.63937 15.2122 9.84486L13.2104 11.7946C13.1481 11.8553 13.1168 11.8858 13.0967 11.9219C13.0788 11.9539 13.0674 11.9891 13.063 12.0255C13.058 12.0666 13.0653 12.1095 13.0801 12.1953L13.5525 14.9493C13.6023 15.2397 13.6272 15.385 13.5803 15.4711C13.5396 15.5461 13.4673 15.5987 13.3833 15.6142C13.2869 15.6322 13.1564 15.5635 12.8956 15.4264L10.4216 14.1253C10.3445 14.0848 10.306 14.0645 10.2654 14.0565C10.2294 14.0495 10.1924 14.0495 10.1565 14.0565C10.1159 14.0645 10.0774 14.0848 10.0003 14.1253L7.52622 15.4264C7.2654 15.5635 7.13497 15.6322 7.03854 15.6142C6.95464 15.5987 6.88224 15.5461 6.84152 15.4711C6.7947 15.385 6.81961 15.2397 6.86942 14.9493L7.34175 12.1953C7.35648 12.1095 7.36384 12.0666 7.35886 12.0255C7.35445 11.9891 7.34301 11.9539 7.32519 11.9219C7.30506 11.8858 7.27386 11.8553 7.21145 11.7946L5.20968 9.84486C4.9987 9.63937 4.8932 9.53661 4.88037 9.43941C4.8692 9.35484 4.89679 9.26973 4.95546 9.20781C5.0229 9.13662 5.1686 9.11534 5.46003 9.07274L8.22745 8.66824C8.31352 8.65565 8.35655 8.64936 8.39403 8.63194C8.42721 8.61651 8.45708 8.59479 8.48199 8.56798C8.51012 8.5377 8.52937 8.49869 8.56787 8.4207L9.8051 5.91428Z" fill="#F800EA"/>
<path d="M35.1051 20.9338C40.7297 20.9338 45.2893 16.3742 45.2893 10.7496C45.2893 5.12506 40.7297 0.56543 35.1051 0.56543C29.4805 0.56543 24.9209 5.12506 24.9209 10.7496C24.9209 16.3742 29.4805 20.9338 35.1051 20.9338Z" fill="white"/>
<path d="M34.6995 5.91428C34.8299 5.65009 34.8952 5.51799 34.9837 5.47578C35.0606 5.43906 35.1501 5.43906 35.2272 5.47578C35.3157 5.51799 35.3809 5.65009 35.5113 5.91428L36.7485 8.4207C36.787 8.49869 36.8062 8.5377 36.8344 8.56798C36.8593 8.59479 36.8891 8.61651 36.9223 8.63194C36.9599 8.64936 37.0029 8.65565 37.0889 8.66824L39.8564 9.07274C40.1478 9.11534 40.2935 9.13662 40.3609 9.20781C40.4196 9.26973 40.4472 9.35484 40.436 9.43941C40.4232 9.53661 40.3177 9.63937 40.1067 9.84486L38.1049 11.7946C38.0426 11.8553 38.0113 11.8858 37.9912 11.9219C37.9733 11.9539 37.9619 11.9891 37.9575 12.0255C37.9525 12.0666 37.9598 12.1095 37.9746 12.1953L38.447 14.9493C38.4968 15.2397 38.5217 15.385 38.4748 15.4711C38.4341 15.5461 38.3618 15.5987 38.2778 15.6142C38.1814 15.6322 38.0509 15.5635 37.7901 15.4264L35.3161 14.1253C35.239 14.0848 35.2005 14.0645 35.1599 14.0565C35.1239 14.0495 35.0869 14.0495 35.051 14.0565C35.0104 14.0645 34.9718 14.0848 34.8947 14.1253L32.4208 15.4264C32.1599 15.5635 32.0295 15.6322 31.9331 15.6142C31.8491 15.5987 31.7768 15.5461 31.736 15.4711C31.6892 15.385 31.7141 15.2397 31.7639 14.9493L32.2362 12.1953C32.251 12.1095 32.2584 12.0666 32.2534 12.0255C32.249 11.9891 32.2376 11.9539 32.2197 11.9219C32.1995 11.8858 32.1683 11.8553 32.106 11.7946L30.1042 9.84486C29.8932 9.63937 29.7877 9.53661 29.7749 9.43941C29.7637 9.35484 29.7913 9.26973 29.8499 9.20781C29.9174 9.13662 30.0631 9.11534 30.3545 9.07274L33.122 8.66824C33.208 8.65565 33.251 8.64936 33.2886 8.63194C33.3217 8.61651 33.3516 8.59479 33.3765 8.56798C33.4047 8.5377 33.4239 8.49869 33.4624 8.4207L34.6995 5.91428Z" fill="#F800EA"/>
<path d="M59.9996 20.9338C65.6242 20.9338 70.1838 16.3742 70.1838 10.7496C70.1838 5.12506 65.6242 0.56543 59.9996 0.56543C54.3751 0.56543 49.8154 5.12506 49.8154 10.7496C49.8154 16.3742 54.3751 20.9338 59.9996 20.9338Z" fill="white"/>
<path d="M59.5941 5.91428C59.7244 5.65009 59.7897 5.51799 59.8782 5.47578C59.9552 5.43906 60.0447 5.43906 60.1217 5.47578C60.2102 5.51799 60.2754 5.65009 60.4059 5.91428L61.643 8.4207C61.6815 8.49869 61.7007 8.5377 61.7289 8.56798C61.7538 8.59479 61.7837 8.61651 61.8168 8.63194C61.8544 8.64936 61.8974 8.65565 61.9834 8.66824L64.7509 9.07274C65.0423 9.11534 65.188 9.13662 65.2555 9.20781C65.3141 9.26973 65.3417 9.35484 65.3305 9.43941C65.3177 9.53661 65.2123 9.63937 65.0012 9.84486L62.9994 11.7946C62.9371 11.8553 62.9059 11.8858 62.8857 11.9219C62.8678 11.9539 62.8564 11.9891 62.852 12.0255C62.847 12.0666 62.8544 12.1095 62.8691 12.1953L63.3415 14.9493C63.3913 15.2397 63.4162 15.385 63.3694 15.4711C63.3286 15.5461 63.2563 15.5987 63.1724 15.6142C63.0759 15.6322 62.9455 15.5635 62.6846 15.4264L60.2107 14.1253C60.1335 14.0848 60.095 14.0645 60.0544 14.0565C60.0184 14.0495 59.9814 14.0495 59.9455 14.0565C59.9049 14.0645 59.8663 14.0848 59.7893 14.1253L57.3153 15.4264C57.0545 15.5635 56.924 15.6322 56.8276 15.6142C56.7436 15.5987 56.6713 15.5461 56.6306 15.4711C56.5837 15.385 56.6086 15.2397 56.6584 14.9493L57.1307 12.1953C57.1456 12.1095 57.1529 12.0666 57.1479 12.0255C57.1435 11.9891 57.1321 11.9539 57.1142 11.9219C57.0941 11.8858 57.0628 11.8553 57.0005 11.7946L54.9987 9.84486C54.7877 9.63937 54.6822 9.53661 54.6694 9.43941C54.6582 9.35484 54.6858 9.26973 54.7445 9.20781C54.8119 9.13662 54.9577 9.11534 55.249 9.07274L58.0165 8.66824C58.1025 8.65565 58.1455 8.64936 58.1831 8.63194C58.2163 8.61651 58.2461 8.59479 58.271 8.56798C58.2992 8.5377 58.3184 8.49869 58.3569 8.4207L59.5941 5.91428Z" fill="#F800EA"/>
<path d="M84.8951 20.9338C90.5197 20.9338 95.0794 16.3742 95.0794 10.7496C95.0794 5.12506 90.5197 0.56543 84.8951 0.56543C79.2706 0.56543 74.7109 5.12506 74.7109 10.7496C74.7109 16.3742 79.2706 20.9338 84.8951 20.9338Z" fill="white"/>
<path d="M84.4886 5.91428C84.619 5.65009 84.6843 5.51799 84.7727 5.47578C84.8497 5.43906 84.9392 5.43906 85.0163 5.47578C85.1047 5.51799 85.1699 5.65009 85.3004 5.91428L86.5376 8.4207C86.576 8.49869 86.5953 8.5377 86.6234 8.56798C86.6483 8.59479 86.6782 8.61651 86.7114 8.63194C86.7489 8.64936 86.7919 8.65565 86.8779 8.66824L89.6454 9.07274C89.9368 9.11534 90.0826 9.13662 90.15 9.20781C90.2086 9.26973 90.2362 9.35484 90.225 9.43941C90.2122 9.53661 90.1068 9.63937 89.8957 9.84486L87.894 11.7946C87.8316 11.8553 87.8004 11.8858 87.7803 11.9219C87.7624 11.9539 87.7509 11.9891 87.7465 12.0255C87.7416 12.0666 87.7489 12.1095 87.7636 12.1953L88.2361 14.9493C88.2858 15.2397 88.3107 15.385 88.2639 15.4711C88.2232 15.5461 88.1508 15.5987 88.0669 15.6142C87.9705 15.6322 87.84 15.5635 87.5792 15.4264L85.1052 14.1253C85.028 14.0848 84.9896 14.0645 84.9489 14.0565C84.913 14.0495 84.8759 14.0495 84.8401 14.0565C84.7994 14.0645 84.7609 14.0848 84.6838 14.1253L82.2098 15.4264C81.949 15.5635 81.8185 15.6322 81.7221 15.6142C81.6382 15.5987 81.5658 15.5461 81.5251 15.4711C81.4783 15.385 81.5032 15.2397 81.5529 14.9493L82.0253 12.1953C82.0401 12.1095 82.0474 12.0666 82.0425 12.0255C82.0381 11.9891 82.0266 11.9539 82.0087 11.9219C81.9886 11.8858 81.9574 11.8553 81.895 11.7946L79.8933 9.84486C79.6822 9.63937 79.5768 9.53661 79.564 9.43941C79.5528 9.35484 79.5804 9.26973 79.639 9.20781C79.7064 9.13662 79.8522 9.11534 80.1436 9.07274L82.9111 8.66824C82.9971 8.65565 83.0401 8.64936 83.0776 8.63194C83.1108 8.61651 83.1407 8.59479 83.1656 8.56798C83.1937 8.5377 83.213 8.49869 83.2514 8.4207L84.4886 5.91428Z" fill="#F800EA"/>
<path d="M109.79 20.9338C115.414 20.9338 119.974 16.3742 119.974 10.7496C119.974 5.12506 115.414 0.56543 109.79 0.56543C104.165 0.56543 99.6055 5.12506 99.6055 10.7496C99.6055 16.3742 104.165 20.9338 109.79 20.9338Z" fill="white"/>
<path d="M109.384 5.91428C109.514 5.65009 109.58 5.51799 109.668 5.47578C109.745 5.43906 109.835 5.43906 109.912 5.47578C110 5.51799 110.065 5.65009 110.196 5.91428L111.433 8.4207C111.472 8.49869 111.491 8.5377 111.519 8.56798C111.544 8.59479 111.574 8.61651 111.607 8.63194C111.644 8.64936 111.687 8.65565 111.773 8.66824L114.54 9.07274C114.832 9.11534 114.978 9.13662 115.045 9.20781C115.104 9.26973 115.132 9.35484 115.121 9.43941C115.107 9.53661 115.002 9.63937 114.792 9.84486L112.789 11.7946C112.727 11.8553 112.696 11.8858 112.676 11.9219C112.658 11.9539 112.646 11.9891 112.642 12.0255C112.637 12.0666 112.644 12.1095 112.659 12.1953L113.132 14.9493C113.181 15.2397 113.206 15.385 113.159 15.4711C113.119 15.5461 113.046 15.5987 112.962 15.6142C112.866 15.6322 112.736 15.5635 112.475 15.4264L110.001 14.1253C109.924 14.0848 109.885 14.0645 109.844 14.0565C109.808 14.0495 109.771 14.0495 109.736 14.0565C109.695 14.0645 109.656 14.0848 109.579 14.1253L107.105 15.4264C106.845 15.5635 106.714 15.6322 106.618 15.6142C106.534 15.5987 106.461 15.5461 106.421 15.4711C106.374 15.385 106.399 15.2397 106.448 14.9493L106.921 12.1953C106.936 12.1095 106.943 12.0666 106.938 12.0255C106.934 11.9891 106.922 11.9539 106.904 11.9219C106.884 11.8858 106.853 11.8553 106.791 11.7946L104.789 9.84486C104.578 9.63937 104.472 9.53661 104.459 9.43941C104.448 9.35484 104.476 9.26973 104.535 9.20781C104.602 9.13662 104.748 9.11534 105.039 9.07274L107.807 8.66824C107.893 8.65565 107.936 8.64936 107.973 8.63194C108.006 8.61651 108.036 8.59479 108.061 8.56798C108.089 8.5377 108.108 8.49869 108.147 8.4207L109.384 5.91428Z" fill="#F800EA"/>
</g>
</g>
</g>
<defs>
<clipPath id="clip0_271_3795">
<rect width="120" height="21.5" fill="white"/>
</clipPath>
<clipPath id="clip1_271_3795">
<rect width="120" height="21.5" fill="white"/>
</clipPath>
<clipPath id="clip2_271_3795">
<rect width="119.947" height="21.5" fill="white" transform="translate(0.0263672)"/>
</clipPath>
</defs>
</svg>
