<svg width="76" height="76" viewBox="0 0 76 76" fill="none" xmlns="http://www.w3.org/2000/svg">
<path d="M30.8119 5.84823C27.2078 5.14002 23.4846 5.32859 19.9704 6.39737C16.4562 7.46615 13.2585 9.38235 10.6588 11.9773C7.88503 14.7388 5.88685 18.1818 4.86503 21.96C3.8432 25.7383 3.8337 29.719 4.8375 33.5021C5.84246 32.6346 7.05147 32.037 8.35091 31.7653C9.65036 31.4936 10.9976 31.5565 12.2659 31.9486C13.5343 32.3406 14.6821 33.0487 15.6016 34.0062C16.5211 34.9638 17.182 36.1393 17.5224 37.4226C18.5827 37.2693 19.6633 37.3357 20.6969 37.6177C21.7305 37.8997 22.6951 38.3911 23.5307 39.0617C24.3663 39.7322 25.0552 40.5674 25.5543 41.5154C26.0535 42.4633 26.3525 43.5039 26.4326 44.5723C28.302 44.7015 30.0618 45.5016 31.3884 46.8252C32.7149 48.1488 33.5189 49.9069 33.6524 51.7761C35.1435 51.8808 36.573 52.4123 37.7704 53.3071C38.9678 54.2018 39.8827 55.422 40.4057 56.8223C40.9289 58.2225 41.0381 59.7437 40.7207 61.2044C40.4033 62.665 39.6723 64.0035 38.6151 65.0603L37.346 66.324L41.0776 69.8502C41.5757 70.322 42.2385 70.5804 42.9246 70.5703C43.6106 70.5603 44.2656 70.2825 44.7496 69.7962C45.1983 69.3466 45.4703 68.7507 45.5159 68.117C45.5615 67.4835 45.3777 66.8547 44.998 66.3455L44.7928 66.1403L44.539 65.8487L43.9936 65.298C43.7413 65.047 43.5411 64.7487 43.4046 64.4202C43.2679 64.0916 43.1976 63.7394 43.1976 63.3836C43.1976 63.0277 43.2679 62.6755 43.4046 62.347C43.5411 62.0184 43.7413 61.7201 43.9936 61.4692C44.4995 60.9664 45.1838 60.6841 45.8971 60.6841C46.6104 60.6841 47.2948 60.9664 47.8006 61.4692L48.5567 62.2252C48.7187 62.3873 48.8699 62.5529 49.0103 62.7221L49.4154 63.1325C49.6515 63.3724 49.9331 63.5631 50.2436 63.6931C50.5543 63.8233 50.8876 63.8903 51.2243 63.8903C51.561 63.8903 51.8945 63.8233 52.205 63.6931C52.5156 63.5631 52.7972 63.3724 53.0334 63.1325C53.5138 62.6498 53.7836 61.9964 53.7836 61.3153C53.7836 60.6343 53.5138 59.9809 53.0334 59.4982L52.2233 58.6881C51.9642 58.4286 51.7608 58.1192 51.6252 57.7784C51.4896 57.4377 51.4249 57.0729 51.4349 56.7063C51.434 56.1729 51.591 55.6511 51.8863 55.2069C52.1816 54.7627 52.6018 54.4158 53.094 54.2102C53.5863 54.0045 54.1283 53.9493 54.6519 54.0513C55.1753 54.1535 55.657 54.4084 56.0358 54.7839L56.6461 55.3995C56.909 55.6639 57.2216 55.8737 57.5658 56.0167C57.9101 56.1599 58.2793 56.2336 58.6522 56.2336C59.025 56.2336 59.3942 56.1599 59.7385 56.0167C60.0828 55.8737 60.3953 55.6639 60.6583 55.3995C61.1876 54.8638 61.4844 54.141 61.4844 53.3879C61.4844 52.6349 61.1876 51.9122 60.6583 51.3764L60.5233 51.2361L60.0319 50.7771L55.8469 46.5758C55.5954 46.325 55.3959 46.0269 55.2598 45.6989C55.1236 45.3709 55.0536 45.0193 55.0536 44.6641C55.0536 44.3089 55.1236 43.9573 55.2598 43.6293C55.3959 43.3012 55.5954 43.0034 55.8469 42.7526C56.3529 42.248 57.0384 41.9646 57.7531 41.9646C58.4676 41.9646 59.1531 42.248 59.6593 42.7526L63.5906 46.6945L63.8552 46.9321L64.1792 47.2562C65.0159 47.9377 66.0758 48.2841 67.1535 48.2282C68.2311 48.1724 69.2496 47.7182 70.0112 46.9537C70.8301 46.131 71.2898 45.0175 71.2898 43.8569C71.2898 42.6961 70.8301 41.5826 70.0112 40.7599L66.026 36.7583L65.8694 36.6126L49.7123 20.1854H45.5759L36.3309 27.2164C31.8596 30.6185 25.4767 29.7545 22.0692 25.2831C21.2571 24.2216 20.6627 23.0099 20.32 21.7181C19.9773 20.4261 19.8932 19.0792 20.0722 17.7547C20.2513 16.4301 20.6902 15.154 21.3638 13.9994C22.0373 12.8449 22.9322 11.8347 23.997 11.0269L30.8119 5.84823ZM50.8463 14.7854C51.2045 14.7862 51.5588 14.8581 51.8889 14.9972C52.2189 15.1363 52.5181 15.3396 52.7687 15.5954L67.3275 30.3917C68.3647 28.3405 68.9759 26.1005 69.1243 23.8068C69.2727 21.513 68.955 19.213 68.1905 17.0453C67.4261 14.8777 66.2306 12.8872 64.6763 11.1939C63.122 9.50061 61.2408 8.13959 59.1462 7.19284L58.9573 7.09565C57.2007 6.12808 55.2277 5.62092 53.2224 5.62142H39.9922L39.7275 5.84823L27.2695 15.3254C26.769 15.7032 26.3481 16.1764 26.0314 16.7178C25.7145 17.259 25.5081 17.8577 25.4237 18.4791C25.3394 19.1005 25.3789 19.7326 25.54 20.3388C25.7011 20.9449 25.9805 21.5131 26.3623 22.0107C27.1311 23.0192 28.2688 23.681 29.5254 23.8512C30.7819 24.0213 32.0545 23.6856 33.0638 22.9179L43.0325 15.3362C43.5013 14.9796 44.0741 14.7862 44.6632 14.7854H50.8463ZM27.5665 54.0387L24.0186 57.5758C23.5671 58.0262 22.9554 58.2792 22.3176 58.2792C21.6798 58.2792 21.068 58.0262 20.6165 57.5758C20.1763 57.1381 19.9233 56.5464 19.9112 55.9257C19.8991 55.3049 20.1288 54.7038 20.5518 54.2493L20.622 54.1792L24.1645 50.642L24.2292 50.5826C24.6861 50.1608 25.2881 49.9316 25.9098 49.9426C26.5315 49.9537 27.125 50.2042 27.5665 50.642C27.7907 50.8645 27.9686 51.129 28.09 51.4205C28.2115 51.712 28.2739 52.0246 28.2739 52.3404C28.2739 52.6562 28.2115 52.9687 28.09 53.2602C27.9686 53.5517 27.7907 53.8163 27.5665 54.0387ZM27.842 64.7795C28.2935 65.23 28.9051 65.4829 29.543 65.4829C30.1807 65.4829 30.7925 65.23 31.244 64.7795L34.7919 61.2424C35.0446 60.9912 35.238 60.6867 35.3579 60.351C35.4778 60.0154 35.5213 59.6573 35.4851 59.3028C35.4489 58.9482 35.3338 58.6063 35.1485 58.3019C34.9632 57.9975 34.7122 57.7383 34.4138 57.5434C33.9511 57.2392 33.398 57.1039 32.8471 57.16C32.2964 57.216 31.7817 57.46 31.3898 57.8512L27.842 61.3883C27.6186 61.6105 27.4413 61.8747 27.3204 62.1657C27.1995 62.4568 27.1372 62.7688 27.1372 63.0839C27.1372 63.399 27.1995 63.711 27.3204 64.002C27.4413 64.293 27.6186 64.5572 27.842 64.7795ZM11.7226 41.0352L8.18017 44.5723C7.72866 45.0228 7.11691 45.2758 6.47914 45.2758C5.84135 45.2758 5.22962 45.0228 4.77811 44.5723C4.33776 44.1347 4.08481 43.543 4.07272 42.9222C4.06063 42.3014 4.29034 41.7004 4.71331 41.2459L4.7835 41.1757L8.32596 37.6386L8.39077 37.5793C8.84739 37.1584 9.44889 36.9303 10.0697 36.9424C10.6905 36.9544 11.2827 37.2058 11.7226 37.644C11.946 37.8663 12.1232 38.1305 12.2442 38.4215C12.3651 38.7125 12.4274 39.0245 12.4274 39.3396C12.4274 39.6547 12.3651 39.9667 12.2442 40.2577C12.1232 40.5487 11.946 40.8129 11.7226 41.0352ZM19.6986 47.0456L16.1561 50.5773C15.7046 51.0277 15.0928 51.2807 14.4551 51.2807C13.8172 51.2807 13.2056 51.0277 12.7541 50.5773C12.3153 50.1398 12.0634 49.5493 12.0513 48.9297C12.0392 48.3103 12.2679 47.7103 12.6892 47.2562L12.7595 47.1859L16.3019 43.6489L16.3668 43.5841C16.8233 43.1634 17.4248 42.9351 18.0457 42.9472C18.6664 42.9592 19.2587 43.2107 19.6986 43.6489C19.9228 43.8712 20.1007 44.1359 20.2221 44.4274C20.3435 44.7188 20.406 45.0315 20.406 45.3473C20.406 45.6629 20.3435 45.9756 20.2221 46.2672C20.1007 46.5587 19.9228 46.8232 19.6986 47.0456Z" fill="#D90BC6"/>
</svg>
