<svg width="76" height="76" viewBox="0 0 76 76" fill="none" xmlns="http://www.w3.org/2000/svg">
<path d="M16.625 66.5C20.5437 66.5 23.75 63.2937 23.75 59.375V34.4375C23.75 30.5187 20.5437 27.3125 16.625 27.3125C12.7062 27.3125 9.5 30.5187 9.5 34.4375V59.375C9.5 63.2937 12.7062 66.5 16.625 66.5ZM52.25 48.6875V59.375C52.25 63.2937 55.4562 66.5 59.375 66.5C63.2937 66.5 66.5 63.2937 66.5 59.375V48.6875C66.5 44.7687 63.2937 41.5625 59.375 41.5625C55.4562 41.5625 52.25 44.7687 52.25 48.6875ZM38 66.5C41.9187 66.5 45.125 63.2937 45.125 59.375V16.625C45.125 12.7062 41.9187 9.5 38 9.5C34.0812 9.5 30.875 12.7062 30.875 16.625V59.375C30.875 63.2937 34.0812 66.5 38 66.5Z" fill="#D90BC6"/>
</svg>
