<svg width="23" height="23" viewBox="0 0 23 23" fill="none" xmlns="http://www.w3.org/2000/svg">
<path d="M20.9547 0.951172L14.0453 3.5457L16.525 5.10898C12.0953 10.6871 5.6875 14.123 0.273438 15.4309L1.80719 18.2246C7.89063 16.2418 14.3313 12.6652 18.4797 6.34648L20.3688 7.53711L20.9547 0.951172ZM21.3156 6.42148L21.0906 8.99024L18.6859 7.47148C18.6016 7.59805 18.5125 7.71992 18.4234 7.84648V22.8277H22.0797V6.42148H21.3156ZM14.2563 12.4215C13.6609 12.9371 13.0469 13.4246 12.4234 13.884V22.8277H16.0797V12.4215H14.2563ZM8.45781 16.359C7.78281 16.7152 7.10781 17.0434 6.42344 17.3527V22.8277H10.0797V16.359H8.45781ZM0.423438 18.4215V22.8277H4.07969V18.4215H3.81344C3.11875 18.6793 2.42453 18.9184 1.73453 19.1387L1.40359 19.2418L0.953594 18.4215H0.423438Z" fill="white"/>
</svg>
