<svg width="178" height="35" viewBox="0 0 178 35" fill="none" xmlns="http://www.w3.org/2000/svg">
<g clip-path="url(#clip0_271_3846)">
<g clip-path="url(#clip1_271_3846)">
<path d="M60.2832 7.88086H69.7858C72.0762 7.88086 74.0139 8.23823 75.5988 8.95296C77.058 9.5664 78.2971 10.6077 79.1527 11.9395C79.9537 13.2552 80.3642 14.7714 80.3363 16.3115C80.3538 17.8585 79.9274 19.3782 79.1075 20.6903C78.1929 22.0763 76.885 23.1576 75.3517 23.7952C73.6716 24.561 71.5889 24.9427 69.1036 24.9404H60.2832V7.88086ZM69.0061 20.5998C70.5493 20.5998 71.7351 20.2146 72.5635 19.4442C72.9836 19.0368 73.3117 18.5444 73.5261 17.9999C73.7404 17.4554 73.8358 16.8714 73.8062 16.2871C73.832 15.7446 73.7473 15.2026 73.5569 14.6939C73.3667 14.1852 73.0749 13.7207 72.6992 13.3283C71.9567 12.5904 70.8393 12.2203 69.3472 12.218H66.3746V20.5998H69.0061Z" fill="white"/>
<path d="M94.5658 24.9123C93.3119 24.5981 92.1131 24.0971 91.0088 23.426V19.3812C91.9732 20.0827 93.0583 20.5995 94.2108 20.9059C95.4716 21.2905 96.7815 21.4909 98.0991 21.5011C98.5538 21.5254 99.0085 21.4469 99.4291 21.2714C99.7281 21.1182 99.8776 20.9233 99.8776 20.7214C99.8811 20.6086 99.861 20.4963 99.8191 20.3916C99.7771 20.2867 99.7141 20.1917 99.6337 20.1122C99.3556 19.8984 99.0295 19.7562 98.6841 19.698L95.7602 19.0401C94.0849 18.6503 92.8948 18.1108 92.1918 17.4216C91.8395 17.0655 91.564 16.64 91.3839 16.1721C91.2047 15.704 91.1242 15.2038 91.1478 14.703C91.1365 13.7955 91.467 12.9168 92.0738 12.2421C92.7934 11.4808 93.701 10.9225 94.7048 10.6235C95.9971 10.2174 97.3472 10.0234 98.7016 10.0491C99.9651 10.0373 101.226 10.1847 102.454 10.4877C103.445 10.7227 104.397 11.1002 105.28 11.6086V15.4375C104.452 14.9571 103.561 14.5929 102.635 14.3549C101.63 14.0855 100.594 13.9498 99.5541 13.9511C98.0274 13.9511 97.2632 14.2111 97.2632 14.7309C97.2606 14.8466 97.293 14.9605 97.355 15.0584C97.4163 15.1562 97.5063 15.2336 97.6112 15.2808C98.0292 15.4582 98.4664 15.5845 98.9132 15.6568L101.35 16.0954C102.933 16.3738 104.112 16.8612 104.89 17.5574C105.668 18.2534 106.057 19.2722 106.06 20.6135C106.072 21.3188 105.899 22.015 105.559 22.633C105.219 23.251 104.723 23.7692 104.121 24.1361C102.837 24.997 101.006 25.4263 98.6246 25.424C97.2554 25.4261 95.8913 25.2542 94.5658 24.9123Z" fill="white"/>
<path d="M111.818 24.4014C110.515 23.8029 109.417 22.8344 108.66 21.6167C107.955 20.4225 107.593 19.0564 107.616 17.6694C107.595 16.2834 107.976 14.9209 108.713 13.7465C109.498 12.548 110.615 11.6044 111.929 11.0315C113.525 10.3357 115.256 9.9983 116.997 10.043C119.434 10.043 121.456 10.5547 123.064 11.578V16.0439C122.452 15.6326 121.784 15.3125 121.08 15.0937C120.292 14.8448 119.469 14.7215 118.643 14.7282C117.132 14.7282 115.95 15.0043 115.097 15.5566C114.713 15.7708 114.392 16.0829 114.168 16.4611C113.944 16.8394 113.824 17.2702 113.82 17.7098C113.817 18.1494 113.93 18.5821 114.148 18.9639C114.366 19.3456 114.681 19.6628 115.062 19.8833C115.89 20.4425 117.092 20.7221 118.668 20.7221C119.481 20.7241 120.29 20.6068 121.07 20.3741C121.78 20.1702 122.463 19.8791 123.102 19.5073V23.8236C121.219 24.9216 119.069 25.4782 116.889 25.4317C115.142 25.4794 113.407 25.1269 111.818 24.4014Z" fill="white"/>
<path d="M129.131 24.4007C127.813 23.7992 126.696 22.8328 125.911 21.616C125.171 20.4247 124.787 19.0467 124.804 17.6444C124.78 16.2587 125.166 14.8967 125.911 13.7284C126.7 12.5426 127.813 11.6076 129.117 11.0343C132.32 9.73467 135.903 9.73467 139.107 11.0343C140.405 11.6032 141.513 12.5336 142.298 13.7145C143.039 14.8871 143.42 16.2508 143.395 17.6374C143.412 19.0383 143.032 20.4154 142.298 21.609C141.522 22.8267 140.41 23.7938 139.096 24.3937C137.522 25.0689 135.826 25.417 134.113 25.417C132.4 25.417 130.705 25.0689 129.131 24.3937V24.4007ZM136.534 20.0775C136.835 19.7667 137.07 19.3976 137.223 18.993C137.376 18.5884 137.446 18.1566 137.425 17.7244C137.446 17.2962 137.378 16.8683 137.224 16.468C137.071 16.0677 136.836 15.7037 136.534 15.3993C136.207 15.099 135.823 14.8676 135.404 14.7186C134.986 14.5697 134.542 14.5064 134.098 14.5325C133.654 14.5092 133.211 14.5738 132.793 14.7225C132.375 14.8713 131.99 15.1013 131.662 15.3993C131.361 15.7043 131.126 16.0686 130.973 16.4688C130.821 16.869 130.753 17.2966 130.774 17.7244C130.754 18.1564 130.823 18.5877 130.975 18.9923C131.128 19.3968 131.362 19.766 131.662 20.0775C131.987 20.3815 132.371 20.6167 132.789 20.7693C133.207 20.9218 133.652 20.9883 134.098 20.965C134.543 20.991 134.989 20.9256 135.408 20.7729C135.827 20.6204 136.21 20.3837 136.534 20.0775Z" fill="white"/>
<path d="M158.039 10.9448V16.2148C157.312 15.7807 156.473 15.569 155.627 15.6056C154.329 15.6056 153.327 16.0025 152.63 16.7891C151.934 17.5758 151.586 18.7976 151.586 20.4544V24.9377H145.616V10.6837H151.464V15.2088C151.789 13.552 152.313 12.3302 153.037 11.5435C153.389 11.1567 153.819 10.8506 154.3 10.6462C154.781 10.442 155.3 10.3443 155.822 10.36C156.602 10.3388 157.371 10.5417 158.039 10.9448Z" fill="white"/>
<path d="M177.872 7.39453V24.9379H171.903V21.7355C171.453 22.8756 170.644 23.8383 169.599 24.4785C168.445 25.1359 167.132 25.4634 165.804 25.4252C164.556 25.4543 163.325 25.1114 162.272 24.4402C161.25 23.777 160.437 22.8397 159.926 21.7355C159.366 20.5167 159.088 19.1881 159.111 17.8474C159.072 16.4574 159.368 15.0784 159.974 13.8271C160.532 12.681 161.402 11.7156 162.484 11.0425C163.596 10.3685 164.877 10.0221 166.177 10.0435C169.018 10.0435 170.926 11.278 171.903 13.747V7.39453H177.872ZM171.026 19.9952C171.33 19.6957 171.568 19.3361 171.726 18.9393C171.884 18.5426 171.957 18.1174 171.942 17.6908C171.954 17.277 171.879 16.8651 171.721 16.4823C171.564 16.0995 171.327 15.7546 171.026 15.4701C170.343 14.914 169.489 14.6104 168.608 14.6104C167.728 14.6104 166.874 14.914 166.191 15.4701C165.891 15.7611 165.656 16.112 165.5 16.5001C165.345 16.8881 165.274 17.3045 165.289 17.7221C165.274 18.1437 165.347 18.5638 165.504 18.9553C165.662 19.3468 165.899 19.701 166.201 19.9952C166.521 20.2924 166.897 20.5228 167.307 20.6729C167.717 20.8228 168.153 20.8895 168.589 20.8688C169.033 20.8933 169.478 20.8286 169.896 20.6786C170.314 20.5285 170.699 20.2961 171.026 19.9952Z" fill="white"/>
<path d="M38.3019 3.65864C35.3943 2.32745 32.3248 1.38307 29.1717 0.849609C28.7403 1.62092 28.3499 2.4145 28.0021 3.22702C24.6436 2.72091 21.2281 2.72091 17.8695 3.22702C17.5216 2.41458 17.1312 1.62101 16.6999 0.849609C13.5449 1.38758 10.4733 2.3342 7.56277 3.6656C1.7846 12.2146 0.218221 20.5511 1.00141 28.7693C4.38525 31.2695 8.17274 33.1708 12.1992 34.3909C13.1058 33.1714 13.9082 31.8778 14.5975 30.5236C13.2882 30.0346 12.0244 29.4313 10.8208 28.7206C11.1376 28.4909 11.4474 28.2542 11.7467 28.0244C15.2488 29.6714 19.071 30.5253 22.9411 30.5253C26.8111 30.5253 30.6333 29.6714 34.1354 28.0244C34.4382 28.2716 34.748 28.5083 35.0613 28.7206C33.8554 29.4324 32.5893 30.037 31.2777 30.5271C31.9662 31.8807 32.7685 33.1732 33.6759 34.3909C37.7059 33.1757 41.4962 31.2753 44.8807 28.7728C45.7996 19.2423 43.3109 10.9823 38.3019 3.65864ZM15.5895 23.7152C13.4071 23.7152 11.604 21.7345 11.604 19.298C11.604 16.8614 13.3445 14.8634 15.5826 14.8634C17.8208 14.8634 19.6099 16.8614 19.5716 19.298C19.5333 21.7345 17.8138 23.7152 15.5895 23.7152ZM30.2926 23.7152C28.1066 23.7152 26.3105 21.7345 26.3105 19.298C26.3105 16.8614 28.0509 14.8634 30.2926 14.8634C32.5342 14.8634 34.3094 16.8614 34.2711 19.298C34.2329 21.7345 32.5168 23.7152 30.2926 23.7152Z" fill="white"/>
<path d="M85.3696 12.2011C87.0133 12.2011 88.3455 11.0041 88.3455 9.52776C88.3455 8.05135 87.0133 6.85449 85.3696 6.85449C83.7259 6.85449 82.3936 8.05135 82.3936 9.52776C82.3936 11.0041 83.7259 12.2011 85.3696 12.2011Z" fill="white"/>
<path d="M82.3896 14.042C83.3324 14.4383 84.3448 14.6423 85.3674 14.6423C86.3901 14.6423 87.4026 14.4383 88.3451 14.042V25.0135H82.3896V14.042Z" fill="white"/>
</g>
</g>
<defs>
<clipPath id="clip0_271_3846">
<rect width="177.499" height="34.1009" fill="white" transform="translate(0.483398 0.794922)"/>
</clipPath>
<clipPath id="clip1_271_3846">
<rect width="177.499" height="34.1009" fill="white" transform="translate(0.483398 0.794922)"/>
</clipPath>
</defs>
</svg>
