<svg width="363" height="322" viewBox="0 0 363 322" fill="none" xmlns="http://www.w3.org/2000/svg">
<path d="M332.282 427.052C349.454 429.284 366.796 430.153 384.125 429.648L387.574 429.548L386.004 426.649C383.822 422.624 381.821 418.349 379.953 413.984L379.438 412.78L378.064 412.699C328.66 409.764 280.55 396.579 237.166 374.08C193.781 351.582 156.191 320.325 127.075 282.538L126.293 281.522L124.978 281.713C120.176 282.409 115.239 283.113 110.273 283.702L106.968 284.094L108.667 286.799C117.489 300.849 127.546 314.174 138.731 326.632C123.685 336.149 107.872 344.537 91.4335 351.718C54.4544 315.789 24.1643 274.227 1.84082 228.781C43.7383 137.586 112.543 58.759 229.564 1.9541C269.746 4.79196 309.378 12.4711 347.492 24.8035C347.52 34.9837 347.006 45.1593 345.953 55.2915L345.787 56.8771L347.371 57.4277C388.2 71.6194 426.545 91.5052 461.131 116.421L462.472 117.389L463.802 116.406C472.298 110.132 481.123 104.266 490.243 98.8311C521.715 122.526 549.827 149.946 573.881 180.418C584.779 286.791 561.867 388.38 493.273 483.68C440.639 490.286 387.199 488.415 335.23 478.151C332.819 461.217 331.833 444.131 332.282 427.052ZM175.884 188.989C160.298 215.762 168.473 248.741 194.332 262.152C220.7 275.827 253.605 264.102 269.596 237.625C285.643 211.059 277.719 177.963 251.234 164.228C224.718 150.478 191.45 162.248 175.884 188.989ZM341.821 275.043C326.238 301.812 334.33 334.753 360.231 348.184C386.601 361.86 419.465 350.112 435.456 323.637C451.498 297.079 443.744 264.061 417.211 250.303C390.656 236.532 357.389 248.3 341.821 275.043Z" stroke="#FF00FF" stroke-width="3.29848"/>
</svg>
