<svg width="34" height="26" viewBox="0 0 34 26" fill="none" xmlns="http://www.w3.org/2000/svg">
<path d="M28.8012 2.17746C26.5674 1.14557 24.2092 0.413523 21.7868 0C21.4553 0.597893 21.1554 1.21305 20.8882 1.84288C18.3079 1.45056 15.6839 1.45056 13.1036 1.84288C12.8364 1.21311 12.5364 0.597965 12.2051 0C9.78114 0.417015 7.42138 1.1508 5.18528 2.18285C0.746081 8.8097 -0.457317 15.2719 0.144382 21.6424C2.74408 23.5804 5.6539 25.0543 8.7473 26C9.44385 25.0548 10.0603 24.052 10.5899 23.0023C9.58391 22.6232 8.61302 22.1555 7.68834 21.6046C7.93172 21.4265 8.16973 21.2431 8.39967 21.0649C11.0902 22.3416 14.0267 23.0036 16.9999 23.0036C19.9732 23.0036 22.9097 22.3416 25.6002 21.0649C25.8329 21.2566 26.0709 21.44 26.3116 21.6046C25.3851 22.1564 24.4124 22.625 23.4047 23.005C23.9337 24.0542 24.5501 25.0561 25.2472 26C28.3433 25.0581 31.2553 23.5849 33.8555 21.6451C34.5615 14.2574 32.6495 7.85449 28.8012 2.17746ZM11.352 17.7246C9.67527 17.7246 8.29004 16.1893 8.29004 14.3005C8.29004 12.4118 9.62718 10.863 11.3467 10.863C13.0662 10.863 14.4407 12.4118 14.4113 14.3005C14.3819 16.1893 13.0608 17.7246 11.352 17.7246ZM22.6479 17.7246C20.9685 17.7246 19.5886 16.1893 19.5886 14.3005C19.5886 12.4118 20.9257 10.863 22.6479 10.863C24.3701 10.863 25.7339 12.4118 25.7045 14.3005C25.6751 16.1893 24.3567 17.7246 22.6479 17.7246Z" fill="white"/>
</svg>
