<svg width="52" height="52" viewBox="0 0 52 52" fill="none" xmlns="http://www.w3.org/2000/svg">
<path d="M51.2015 25.8C50.1535 23.7646 47.6135 23.0906 45.6295 24.3333C44.7628 24.8746 43.9202 25.4493 42.9915 26.0573C42.9042 23.182 42.1428 20.5566 40.7682 18.1133C39.3935 15.67 37.5748 13.6413 35.1302 12.1646C35.7828 11.298 36.0235 10.354 35.7182 9.31663C35.4128 8.2793 34.6942 7.61063 33.6342 7.24063L35.1109 4.58397C35.4535 3.96663 35.8015 3.35464 36.1348 2.7333C36.5602 1.94197 36.3035 1.30797 35.4228 1.08864C34.5128 0.861969 33.5868 0.702635 32.6688 0.509968C32.575 0.485031 32.4829 0.454306 32.3928 0.417969H27.3548C27.2462 0.450635 27.1388 0.491302 27.0282 0.515302C26.1268 0.707301 25.2182 0.867302 24.3262 1.09397C23.4202 1.32397 23.1808 1.9493 23.6355 2.77863C24.0902 3.60797 24.5508 4.41864 25.0068 5.23997C25.3708 5.89464 25.7315 6.5513 26.0968 7.21264C24.0495 7.96663 23.1875 10.1946 24.5868 12.166C24.5501 12.1999 24.5116 12.232 24.4715 12.262C19.5162 15.5753 17.0322 20.2573 16.7842 26.1686C16.7708 26.4826 16.6702 26.5966 16.3842 26.6813C14.8178 27.1436 13.3658 27.9294 12.1222 28.988C11.0242 29.9213 9.94485 30.876 8.85551 31.8213C8.80435 31.7968 8.75549 31.7678 8.70951 31.7346C7.80218 30.9346 7.49551 30.94 6.64818 31.7873L0.592846 37.8426C-0.159154 38.5953 -0.156488 39.032 0.604179 39.7926L9.72685 48.9126C10.5935 49.7793 11.4555 50.6506 12.3268 51.5126C12.8535 52.0313 13.3875 52.0753 13.8788 51.5886C16.0868 49.4015 18.2833 47.2053 20.4682 45C20.9235 44.5413 20.9122 44.0666 20.5142 43.556C20.4475 43.4733 20.3922 43.384 20.2968 43.2493H20.9148C25.3648 43.2493 29.8148 43.226 34.2642 43.2613C35.9402 43.2746 37.3182 42.728 38.5308 41.578C42.198 38.1002 45.8844 34.6431 49.5902 31.2066C50.3942 30.458 51.1629 29.7026 51.5368 28.6373V26.5186C51.4282 26.2786 51.3235 26.0353 51.2015 25.8ZM25.9348 2.7693C28.5762 2.18463 31.1662 2.2033 33.8148 2.75864C33.0908 4.06664 32.3908 5.33797 31.6682 6.59997C31.6115 6.69997 31.3928 6.74797 31.2482 6.74997C30.3295 6.7633 29.4102 6.76663 28.4915 6.74997C28.3408 6.74997 28.1215 6.6633 28.0542 6.54997C27.3442 5.31263 26.6595 4.06663 25.9348 2.7693ZM26.6488 9.20997C27.7155 8.95197 28.8075 8.77263 29.9028 8.5573C30.9848 8.7733 32.0428 8.9413 33.0762 9.20597C33.8095 9.39397 34.0608 10.202 33.6302 10.7686C33.3568 11.1286 33.0048 11.224 32.5635 11.0933C30.7808 10.5666 28.9928 10.5733 27.2048 11.0813C26.6195 11.2473 26.1162 10.9966 25.9602 10.4766C25.7955 9.9333 26.0622 9.3513 26.6502 9.20997H26.6488ZM19.0962 23.41C19.8375 20.024 21.4962 17.1613 24.1702 14.9346C27.6615 12.0306 31.8402 11.9226 35.3655 14.78C39.0762 17.788 40.9348 21.7466 40.9548 26.5466C40.9548 27.14 40.7922 27.554 40.2328 27.892C38.8162 28.75 37.4502 29.692 36.0402 30.6186C35.3809 29.8986 34.6328 29.3466 33.6795 29.238C32.7695 29.1346 31.8475 29.138 30.8795 29.092C30.8795 28.8106 30.8502 28.5253 30.8915 28.2506C30.9063 28.1699 30.937 28.093 30.9819 28.0243C31.0268 27.9556 31.0849 27.8966 31.1528 27.8506C32.4768 27.1173 33.1168 25.8573 32.8268 24.5106C32.5242 23.102 31.4355 22.1826 29.9355 22.09C29.4262 22.058 29.0648 21.84 28.9102 21.3513C28.7808 20.9433 28.9102 20.5806 29.2342 20.3113C29.6342 19.978 30.0702 20.0013 30.5008 20.2593C30.7008 20.38 30.8755 20.5413 31.0688 20.674C31.5355 20.9926 32.0788 20.9273 32.4275 20.5173C32.7762 20.1073 32.7735 19.5346 32.3522 19.1593C32.0025 18.8486 31.6161 18.5819 31.2015 18.3653C30.9475 18.232 30.8615 18.0986 30.8795 17.832C30.899 17.5471 30.8974 17.2612 30.8748 16.9766C30.8587 16.7225 30.7463 16.4842 30.5605 16.3101C30.3747 16.1361 30.1294 16.0395 29.8748 16.04C29.3522 16.04 28.8468 16.4466 28.8955 16.9813C28.9715 17.8126 28.7162 18.3066 27.9782 18.7753C26.9548 19.4246 26.6275 20.8053 26.9902 21.972C27.1756 22.5516 27.5292 23.0629 28.0061 23.4409C28.483 23.8189 29.0616 24.0464 29.6682 24.0946C29.8982 24.114 30.1448 24.136 30.3488 24.2313C30.8115 24.4486 30.9982 25.0073 30.8055 25.474C30.6055 25.9533 30.0955 26.252 29.6208 26.064C29.2602 25.9213 28.9242 25.6706 28.6328 25.4066C28.1148 24.9366 27.5515 24.862 27.1162 25.2733C26.6808 25.6846 26.6668 26.294 27.1655 26.7853C27.5315 27.146 27.9382 27.498 28.3895 27.7306C28.7808 27.9306 28.9415 28.1453 28.8755 28.5666C28.8482 28.7433 28.8708 28.9273 28.8708 29.2293C28.4995 29.1106 28.1528 29.09 27.9268 28.914C25.2508 26.838 22.2375 25.8973 18.7208 26.1706C18.8435 25.2186 18.9028 24.3 19.0975 23.4113L19.0962 23.41ZM13.2082 49.3233L2.64951 38.766L7.68618 33.7426L18.2382 44.296L13.2082 49.3233ZM48.8615 29.1233C46.6509 31.1846 44.4444 33.2513 42.2422 35.3233C40.4782 36.9766 38.7089 38.6246 36.9515 40.286C36.2688 40.932 35.4849 41.2393 34.5409 41.238C29.2348 41.2286 23.9282 41.238 18.6215 41.2246C18.4115 41.2246 18.1408 41.154 17.9995 41.014C15.4586 38.4966 12.9273 35.9695 10.4055 33.4326C10.3715 33.398 10.3468 33.354 10.2608 33.2366C11.5868 32.1253 12.8175 30.9426 14.1942 29.97C15.9366 28.7416 18.0216 28.093 20.1534 28.1162C22.2852 28.1394 24.3556 28.8333 26.0708 30.0993C27.1015 30.8586 28.1495 31.244 29.4235 31.1706C30.5448 31.104 31.6735 31.152 32.7982 31.1586C34.0248 31.1666 34.9162 32.0253 34.9102 33.1826C34.9042 34.34 34.0068 35.1826 32.7768 35.1866C30.5435 35.192 28.3102 35.1773 26.0768 35.2013C25.7485 35.2081 25.4292 35.3105 25.1582 35.496C24.8248 35.7373 24.7495 36.1386 24.9095 36.5426C25.0922 37 25.4502 37.2 25.9348 37.2C27.6142 37.2 29.2935 37.2 30.9728 37.2C31.7782 37.2 32.5935 37.258 33.3875 37.1586C35.5448 36.892 37.0155 35.092 36.9142 32.9126C36.9002 32.618 36.9435 32.4273 37.2142 32.2513C40.3475 30.2093 43.4735 28.1486 46.6062 26.1026C47.8269 25.3026 49.2729 25.8426 49.5769 27.1993C49.7542 27.9866 49.4282 28.5953 48.8615 29.124V29.1233Z" fill="#00A946"/>
</svg>
