<svg width="384" height="140" viewBox="0 0 384 140" fill="none" xmlns="http://www.w3.org/2000/svg">
<path d="M42.7422 60.0933C38.0405 59.6927 12.2884 48.2406 0 42.5647V132.788C0 136.619 3.10492 139.724 6.93505 139.724H376.142C379.972 139.724 383.077 136.619 383.077 132.788V11.013C383.433 10.0113 382.863 7.60741 377.734 6.00479C371.323 4.00151 349.952 38.0572 346.746 36.5548C343.54 35.0523 336.595 28.0409 323.772 42.5647C310.949 57.0884 301.332 66.1031 294.921 66.1031C288.51 66.1031 262.864 33.049 256.453 32.5482C252.161 32.2129 243.096 37.0556 238.822 32.5482C234.548 28.0408 227.602 10.0113 221.191 8.50888C214.779 7.00643 202.491 30.5449 198.751 30.5449C195.011 30.5449 172.572 60.0933 167.229 66.1031C161.886 72.1129 157.612 73.1146 151.2 69.6088C144.789 66.1031 130.364 17.5237 125.021 6.50564C119.678 -4.51238 111.13 2.49909 105.253 12.5155C99.3756 22.5319 92.43 42.5647 86.5529 42.5647C80.6759 42.5647 81.2102 36.5548 67.8532 38.0573C54.4963 39.5597 48.6192 60.5941 42.7422 60.0933Z" fill="url(#paint0_linear_469_637)"/>
<defs>
<linearGradient id="paint0_linear_469_637" x1="232.5" y1="152.5" x2="230.674" y2="1.02656" gradientUnits="userSpaceOnUse">
<stop stop-color="white"/>
<stop offset="1" stop-color="#F800EA"/>
</linearGradient>
</defs>
</svg>
