<svg width="60" height="59" viewBox="0 0 60 59" fill="none" xmlns="http://www.w3.org/2000/svg">
<g clip-path="url(#clip0_271_4019)">
<g clip-path="url(#clip1_271_4019)">
<g clip-path="url(#clip2_271_4019)">
<g clip-path="url(#clip3_271_4019)">
<path d="M23.5375 40.606H22.9328C17.2094 40.606 12.3526 38.6108 8.36235 34.6205C4.37208 30.6303 2.37695 25.7734 2.37695 20.05C2.37695 14.3266 4.37208 9.4698 8.36235 5.47954C12.3526 1.48927 17.2094 -0.505859 22.9328 -0.505859C25.7945 -0.505859 28.4653 0.0277879 30.9449 1.09509C33.4245 2.16237 35.6009 3.63354 37.4743 5.50855C39.3478 7.38357 40.8181 9.56008 41.8854 12.0381C42.9526 14.5161 43.4871 17.1867 43.4887 20.05C43.4887 25.451 41.9669 30.4691 38.923 35.1041C35.8791 39.7394 32.0404 43.3669 27.4068 45.9867C27.0037 46.1883 26.6007 46.2995 26.1976 46.3205C25.7945 46.3414 25.4317 46.2504 25.1094 46.0473C24.787 45.844 24.5048 45.582 24.2629 45.2613C24.0212 44.9403 23.8801 44.5575 23.8397 44.1125L23.5375 40.606ZM22.8724 33.2904C23.5576 33.2904 24.142 33.0486 24.6257 32.565C25.1094 32.0813 25.3513 31.4968 25.3513 30.8117C25.3513 30.1265 25.1094 29.542 24.6257 29.0583C24.142 28.5747 23.5576 28.3329 22.8724 28.3329C22.1872 28.3329 21.6027 28.5747 21.1191 29.0583C20.6354 29.542 20.3937 30.1265 20.3937 30.8117C20.3937 31.4968 20.6354 32.0813 21.1191 32.565C21.6027 33.0486 22.1872 33.2904 22.8724 33.2904ZM17.6124 14.9111C18.0558 15.1126 18.4993 15.1231 18.9425 14.9425C19.3859 14.7619 19.7487 14.4693 20.0309 14.0646C20.3936 13.581 20.8169 13.2077 21.3005 12.945C21.7842 12.6822 22.3283 12.5516 22.9328 12.5532C23.9001 12.5532 24.6861 12.8248 25.2907 13.3682C25.8954 13.9115 26.1976 14.6071 26.1976 15.4552C26.1976 15.9792 26.0468 16.5031 25.7454 17.0272C25.4439 17.5511 24.9095 18.196 24.142 18.9618C23.1343 19.8485 22.3887 20.6853 21.9051 21.472C21.4214 22.2587 21.1795 23.0544 21.1795 23.859C21.1795 24.3426 21.3513 24.7562 21.6946 25.0995C22.0381 25.443 22.4508 25.6139 22.9328 25.6123C23.4149 25.6107 23.8179 25.4292 24.142 25.068C24.466 24.707 24.7079 24.2838 24.8675 23.7985C25.0691 23.1132 25.4317 22.4885 25.9558 21.9242C26.4797 21.3599 26.9634 20.8562 27.4068 20.4128C28.2532 19.5663 28.8885 18.7199 29.3124 17.8735C29.7364 17.0272 29.9477 16.1807 29.9461 15.3343C29.9461 13.4802 29.3108 11.9889 28.0404 10.8603C26.7699 9.73178 25.0675 9.1675 22.9328 9.1675C21.6431 9.1675 20.4541 9.48028 19.3657 10.1058C18.2776 10.7314 17.3909 11.5874 16.7056 12.6741C16.4638 13.1175 16.4332 13.5511 16.6138 13.9752C16.7942 14.3992 17.1272 14.7112 17.6124 14.9111Z" fill="url(#paint0_linear_271_4019)"/>
</g>
</g>
</g>
</g>
<defs>
<linearGradient id="paint0_linear_271_4019" x1="43.4887" y1="22.9088" x2="2.37695" y2="22.9088" gradientUnits="userSpaceOnUse">
<stop stop-color="#F800EA"/>
<stop offset="1" stop-color="#BB00A3"/>
</linearGradient>
<clipPath id="clip0_271_4019">
<rect width="60" height="58.5366" fill="white"/>
</clipPath>
<clipPath id="clip1_271_4019">
<rect width="48.2927" height="46.8293" fill="white" transform="translate(-0.0625 -0.505859)"/>
</clipPath>
<clipPath id="clip2_271_4019">
<rect width="48.2927" height="46.8293" fill="white" transform="translate(-0.0625 -0.505859)"/>
</clipPath>
<clipPath id="clip3_271_4019">
<rect width="48.2927" height="46.8293" fill="white" transform="translate(-0.0625 -0.505859)"/>
</clipPath>
</defs>
</svg>
