<svg width="46" height="46" viewBox="0 0 46 46" fill="none" xmlns="http://www.w3.org/2000/svg">
<g clip-path="url(#clip0_271_4007)">
<g clip-path="url(#clip1_271_4007)">
<mask id="mask0_271_4007" style="mask-type:luminance" maskUnits="userSpaceOnUse" x="0" y="0" width="46" height="46">
<path d="M45.5358 0.697266H0.929688V45.3033H45.5358V0.697266Z" fill="white"/>
</mask>
<g mask="url(#mask0_271_4007)">
<path d="M29.2968 6.24793C31.555 9.90563 33.71 15.8104 34.2536 25.2585L38.4354 30.3603C39.4235 31.5966 39.9613 33.1324 39.9604 34.715V43.9094C39.9604 44.202 39.8684 44.487 39.6972 44.7244C39.5262 44.9618 39.2848 45.1393 39.0072 45.2318C38.7297 45.3244 38.4301 45.3272 38.1508 45.2399C37.8716 45.1526 37.6268 44.9798 37.4513 44.7457L34.315 40.5639C33.8522 39.945 33.1441 39.4488 32.2185 38.9748C31.6219 38.6737 31.0643 38.4396 30.4705 38.1887L29.9241 37.9573C27.9725 39.1505 25.6028 39.7276 23.2331 39.7276C20.8634 39.7276 18.4938 39.1505 16.5422 37.9573C16.3545 38.0391 16.1705 38.1171 15.9902 38.1914C15.402 38.4396 14.8444 38.6737 14.2478 38.9748C13.3222 39.4488 12.6141 39.945 12.1513 40.5639L9.01495 44.7457C8.83941 44.9798 8.59469 45.1526 8.31543 45.2399C8.03617 45.3272 7.73655 45.3244 7.45899 45.2318C7.18145 45.1393 6.94004 44.9618 6.76898 44.7244C6.59792 44.487 6.50586 44.202 6.50586 43.9094V34.715C6.50583 33.132 7.04463 31.5963 8.03362 30.3603L8.04477 30.3464L12.2182 25.2585C12.7674 15.9944 14.9197 10.1091 17.1639 6.42357C18.4631 4.28527 19.7845 2.90527 20.8161 2.0466C21.3356 1.61147 21.8969 1.22861 22.4916 0.903569C22.7172 0.772865 22.9725 0.70186 23.2331 0.697266C23.5147 0.697266 23.7071 0.772538 23.9301 0.87569C24.0342 0.922154 24.1689 0.991851 24.3344 1.08478C24.6633 1.26878 25.1066 1.55036 25.6251 1.96296C26.665 2.79096 27.9948 4.13472 29.2968 6.24793ZM27.415 17.4245C27.415 14.3439 25.5415 11.8488 23.2331 11.8488C20.9248 11.8488 19.0513 14.3439 19.0513 17.4245C19.0513 20.5051 20.9248 23.0003 23.2331 23.0003C25.5415 23.0003 27.415 20.5051 27.415 17.4245Z" fill="url(#paint0_linear_271_4007)"/>
<path d="M23.2346 41.1219C24.6285 41.1219 26.0197 40.9936 27.3579 40.7344L24.3498 44.7461C24.2198 44.9193 24.0514 45.0598 23.858 45.1565C23.6644 45.2532 23.4509 45.3037 23.2346 45.3037C23.0181 45.3037 22.8047 45.2532 22.6111 45.1565C22.4176 45.0598 22.2492 44.9193 22.1194 44.7461L19.1113 40.7344C20.4495 40.9936 21.8434 41.1219 23.2346 41.1219Z" fill="url(#paint1_linear_271_4007)"/>
</g>
</g>
</g>
<defs>
<linearGradient id="paint0_linear_271_4007" x1="39.9604" y1="23.0003" x2="6.50586" y2="23.0003" gradientUnits="userSpaceOnUse">
<stop stop-color="#F800EA"/>
<stop offset="1" stop-color="#BB00A3"/>
</linearGradient>
<linearGradient id="paint1_linear_271_4007" x1="27.3579" y1="43.019" x2="19.1113" y2="43.019" gradientUnits="userSpaceOnUse">
<stop stop-color="#F800EA"/>
<stop offset="1" stop-color="#BB00A3"/>
</linearGradient>
<clipPath id="clip0_271_4007">
<rect width="46" height="46" fill="white"/>
</clipPath>
<clipPath id="clip1_271_4007">
<rect width="46" height="46" fill="white"/>
</clipPath>
</defs>
</svg>
