<svg width="58" height="58" viewBox="0 0 58 58" fill="none" xmlns="http://www.w3.org/2000/svg">
<mask id="mask0_271_4171" style="mask-type:luminance" maskUnits="userSpaceOnUse" x="0" y="0" width="58" height="58">
<path d="M58 0H0V58H58V0Z" fill="white"/>
</mask>
<g mask="url(#mask0_271_4171)">
<path d="M29.6795 3.62542C29.8801 3.70664 30.0807 3.78784 30.2813 3.86902C30.5043 3.96321 30.7272 4.05785 30.9499 4.1529C31.0714 4.2044 31.1928 4.25587 31.3179 4.30897C31.7136 4.47708 32.1091 4.6459 32.5045 4.81487C32.7083 4.90183 32.7083 4.90183 32.9163 4.99055C38.7877 7.49717 44.7046 10.0937 50.3183 13.1445C50.516 13.2505 50.7162 13.3521 50.9163 13.4534C51.0295 13.5116 51.143 13.5697 51.2594 13.6296C51.3979 13.699 51.3979 13.699 51.5392 13.7698C51.8986 14.0262 52.0714 14.308 52.1572 14.7455C52.194 15.0511 52.2197 15.3558 52.2417 15.6629C52.2511 15.7775 52.2601 15.8922 52.2691 16.0103C52.3635 17.3119 52.3704 18.6123 52.3639 19.9167C52.3639 20.0404 52.3635 20.1641 52.3631 20.2916C52.3577 22.1087 52.3198 23.9086 52.109 25.7153C52.0976 25.8206 52.0861 25.9259 52.0743 26.0345C51.9893 26.7992 51.8856 27.5601 51.7692 28.3207C51.7508 28.4418 51.7324 28.5629 51.7132 28.6877C50.5299 36.2254 47.5184 43.045 42.2539 48.5979C42.133 48.7261 42.133 48.7261 42.0096 48.8568C41.4174 49.4675 40.7666 49.9952 40.1014 50.5237C39.9771 50.6242 39.8529 50.7251 39.7288 50.8256C36.9605 53.0545 33.839 54.6593 30.5046 55.8663C30.2782 55.9496 30.0537 56.0374 29.8295 56.1264C29.6571 56.1918 29.6571 56.1918 29.4812 56.2588C29.3884 56.2951 29.2955 56.3319 29.1998 56.3695C28.3606 56.4904 27.4741 56.0701 26.6988 55.7842C26.5909 55.745 26.4831 55.7053 26.372 55.6645C23.275 54.5082 20.3581 52.9479 17.785 50.8636C17.6836 50.7839 17.5823 50.7047 17.4778 50.6226C16.336 49.7134 15.1808 48.7221 14.2476 47.5943C14.0872 47.4007 13.9213 47.212 13.7538 47.0245C7.32131 39.8103 5.06421 29.5601 5.07622 20.122C5.07626 20.03 5.0763 19.938 5.0763 19.8433C5.07822 18.5908 5.1064 17.3434 5.18948 16.0934C5.20141 15.9016 5.20141 15.9016 5.21354 15.7058C5.22269 15.5874 5.23184 15.469 5.24127 15.3469C5.25283 15.1949 5.25283 15.1949 5.26464 15.0399C5.4437 14.0963 5.4437 14.0963 5.89263 13.7653C6.19652 13.5933 6.5049 13.4396 6.82014 13.2893C6.93606 13.2315 7.05198 13.1737 7.17141 13.1142C7.41517 12.9929 7.65938 12.8726 7.90413 12.7533C8.36249 12.5291 8.8171 12.2978 9.27191 12.0664C9.83095 11.7826 10.3918 11.5025 10.9527 11.2223C11.1306 11.1334 11.1306 11.1334 11.3122 11.0427C13.0831 10.1586 14.8588 9.29349 16.6636 8.48039C16.8991 8.37403 17.1343 8.26706 17.3694 8.16C19.585 7.15129 21.8094 6.16374 24.0437 5.19718C24.1456 5.15307 24.2473 5.10892 24.3522 5.06346C24.9346 4.81128 25.5183 4.56261 26.1033 4.31644C26.4068 4.18647 26.7077 4.05137 27.0088 3.91581C27.2092 3.82864 27.4098 3.74157 27.6103 3.65462C27.746 3.59132 27.746 3.59132 27.8844 3.52673C28.593 3.22645 28.9917 3.31514 29.6795 3.62542Z" fill="white"/>
<path d="M29.6795 3.62542C29.8801 3.70664 30.0807 3.78784 30.2813 3.86902C30.5043 3.96321 30.7272 4.05785 30.9499 4.1529C31.0714 4.2044 31.1928 4.25587 31.3179 4.30897C31.7136 4.47708 32.1091 4.6459 32.5045 4.81487C32.7083 4.90183 32.7083 4.90183 32.9163 4.99055C38.7877 7.49717 44.7046 10.0937 50.3183 13.1445C50.516 13.2505 50.7162 13.3521 50.9163 13.4534C51.0295 13.5116 51.143 13.5697 51.2594 13.6296C51.3979 13.699 51.3979 13.699 51.5392 13.7698C51.8986 14.0262 52.0714 14.308 52.1572 14.7455C52.194 15.0511 52.2197 15.3558 52.2417 15.6629C52.2511 15.7775 52.2601 15.8922 52.2691 16.0103C52.3635 17.3119 52.3704 18.6123 52.3639 19.9167C52.3639 20.0404 52.3635 20.1641 52.3631 20.2916C52.3577 22.1087 52.3198 23.9086 52.109 25.7153C52.0976 25.8206 52.0861 25.9259 52.0743 26.0345C51.9893 26.7992 51.8856 27.5601 51.7692 28.3207C51.7508 28.4418 51.7324 28.5629 51.7132 28.6877C50.5299 36.2254 47.5184 43.045 42.2539 48.5979C42.133 48.7261 42.133 48.7261 42.0096 48.8568C41.4174 49.4675 40.7666 49.9952 40.1014 50.5237C39.9771 50.6242 39.8529 50.7251 39.7288 50.8256C36.9605 53.0545 33.839 54.6593 30.5046 55.8663C30.2782 55.9496 30.0537 56.0374 29.8295 56.1264C29.6571 56.1918 29.6571 56.1918 29.4812 56.2588C29.3884 56.2951 29.2955 56.3319 29.1998 56.3695C28.3606 56.4904 27.4741 56.0701 26.6988 55.7842C26.5909 55.745 26.4831 55.7053 26.372 55.6645C23.275 54.5082 20.3581 52.9479 17.785 50.8636C17.6836 50.7839 17.5823 50.7047 17.4778 50.6226C16.336 49.7134 15.1808 48.7221 14.2476 47.5943C14.0872 47.4007 13.9213 47.212 13.7538 47.0245C7.32131 39.8103 5.06421 29.5601 5.07622 20.122C5.07626 20.03 5.0763 19.938 5.0763 19.8433C5.07822 18.5908 5.1064 17.3434 5.18948 16.0934C5.20141 15.9016 5.20141 15.9016 5.21354 15.7058C5.22269 15.5874 5.23184 15.469 5.24127 15.3469C5.25283 15.1949 5.25283 15.1949 5.26464 15.0399C5.4437 14.0963 5.4437 14.0963 5.89263 13.7653C6.19652 13.5933 6.5049 13.4396 6.82014 13.2893C6.93606 13.2315 7.05198 13.1737 7.17141 13.1142C7.41517 12.9929 7.65938 12.8726 7.90413 12.7533C8.36249 12.5291 8.8171 12.2978 9.27191 12.0664C9.83095 11.7826 10.3918 11.5025 10.9527 11.2223C11.1306 11.1334 11.1306 11.1334 11.3122 11.0427C13.0831 10.1586 14.8588 9.29349 16.6636 8.48039C16.8991 8.37403 17.1343 8.26706 17.3694 8.16C19.585 7.15129 21.8094 6.16374 24.0437 5.19718C24.1456 5.15307 24.2473 5.10892 24.3522 5.06346C24.9346 4.81128 25.5183 4.56261 26.1033 4.31644C26.4068 4.18647 26.7077 4.05137 27.0088 3.91581C27.2092 3.82864 27.4098 3.74157 27.6103 3.65462C27.746 3.59132 27.746 3.59132 27.8844 3.52673C28.593 3.22645 28.9917 3.31514 29.6795 3.62542ZM28.111 8.99475C28.0262 9.0298 27.9413 9.06484 27.8539 9.10095C27.7623 9.13979 27.6707 9.17864 27.5763 9.21867C27.4795 9.25902 27.3829 9.29933 27.2832 9.34087C26.9653 9.47387 26.6479 9.60816 26.3306 9.74259C26.2218 9.78845 26.1129 9.83428 26.0007 9.88154C24.0361 10.7091 22.0928 11.5781 20.1607 12.4786C19.7238 12.6822 19.2859 12.8834 18.8479 13.0844C17.54 13.6853 16.2413 14.2998 14.9571 14.9498C14.095 15.3857 13.2246 15.8029 12.3502 16.2134C12.1486 16.3088 11.9476 16.4055 11.7474 16.5037C11.5317 16.6087 11.3138 16.7094 11.0945 16.8069C10.5004 17.0714 10.5004 17.0714 10.0758 17.5381C10.0168 17.7944 10.0049 18.0251 10.004 18.2883C9.99911 18.3875 9.99425 18.4868 9.98923 18.589C9.97448 18.9633 9.97138 19.3368 9.96856 19.7114C9.96574 19.8778 9.96276 20.0443 9.95966 20.2108C9.9202 22.431 9.93004 24.6405 10.1951 26.848C10.206 26.9443 10.217 27.0406 10.2283 27.1398C10.8282 32.3002 12.4155 37.5749 15.5193 41.8013C15.567 41.8662 15.6147 41.9316 15.6638 41.9985C18.5167 45.8506 22.3641 48.6179 26.8235 50.3146C27.0389 50.3971 27.2533 50.4825 27.4674 50.5682C27.5736 50.6095 27.6797 50.6512 27.7891 50.6936C27.8751 50.7275 27.9611 50.7614 28.0497 50.7966C28.8041 50.9841 29.3994 50.8023 30.0972 50.5311C30.1901 50.4955 30.2829 50.4604 30.3785 50.4241C33.7903 49.1056 36.7783 47.2798 39.4217 44.7466C39.5068 44.6661 39.5919 44.5857 39.6797 44.5028C41.2279 43.0037 42.4373 41.1727 43.4997 39.309C43.5385 39.2417 43.5773 39.1745 43.6173 39.1052C44.3076 37.9013 44.8316 36.6446 45.3124 35.3442C45.3471 35.2498 45.3822 35.1555 45.4182 35.0583C46.0178 33.4123 46.423 31.7323 46.7848 30.02C46.8057 29.9236 46.8265 29.8272 46.8477 29.728C46.9985 29.0081 47.0993 28.2859 47.1884 27.5561C47.21 27.3892 47.21 27.3892 47.2317 27.2189C47.4355 25.5745 47.4857 23.949 47.4857 22.2938C47.4857 21.9434 47.4878 21.593 47.4902 21.2426C47.4923 20.6831 47.4829 20.1246 47.4682 19.5653C47.4649 19.276 47.4751 18.9903 47.4882 18.7014C47.4955 18.1797 47.4563 17.8133 47.2382 17.3325C46.7146 16.8483 46.0366 16.5943 45.3855 16.3266C44.9158 16.1276 44.4681 15.889 44.016 15.6532C43.6508 15.4683 43.2852 15.2853 42.9193 15.1022C42.7739 15.0293 42.7739 15.0293 42.6252 14.9549C40.9281 14.1066 39.214 13.3031 37.4807 12.5316C36.9707 12.3045 36.4625 12.074 35.9551 11.8414C34.3971 11.1282 32.8304 10.437 31.253 9.7675C31.0595 9.68532 30.866 9.60285 30.6727 9.52018C30.4029 9.40496 30.1327 9.29084 29.8622 9.17708C29.7816 9.14249 29.7009 9.10785 29.6178 9.07219C29.065 8.84187 28.6701 8.761 28.111 8.99475Z" fill="url(#paint0_linear_271_4171)"/>
<path d="M28.773 3.28516C30.4695 3.95232 32.1479 4.65724 33.8211 5.38085C33.947 5.43521 34.0728 5.48958 34.2025 5.54553C36.3359 6.46737 38.4558 7.41448 40.5629 8.39489C40.8487 8.52755 41.1346 8.6594 41.4205 8.79121C44.4169 10.1728 47.4227 11.5679 50.3219 13.1459C50.5179 13.2512 50.7164 13.352 50.9149 13.4526C51.0285 13.5109 51.1424 13.5691 51.2593 13.6291C51.3516 13.6755 51.4439 13.7217 51.539 13.7694C51.8985 14.0258 52.0713 14.3075 52.157 14.7451C52.1934 15.0507 52.2195 15.3555 52.2416 15.6625C52.2506 15.7771 52.2596 15.8918 52.2689 16.0099C52.3629 17.3115 52.3702 18.6119 52.3637 19.9163C52.3633 20.04 52.3633 20.1637 52.3629 20.2912C52.3576 22.1083 52.3196 23.9082 52.1088 25.7148C52.0974 25.8202 52.086 25.9255 52.0741 26.034C51.9892 26.7988 51.8854 27.5597 51.769 28.3203C51.7506 28.4414 51.7322 28.5625 51.713 28.6873C50.5298 36.225 47.5183 43.0446 42.2533 48.5975C42.1729 48.6832 42.0924 48.7686 42.0091 48.8564C41.4168 49.4671 40.7664 49.9948 40.1011 50.5233C39.9769 50.6238 39.8527 50.7247 39.7285 50.8252C36.8867 53.1133 33.6733 54.7381 30.2456 55.961C30.1531 55.9941 30.0605 56.0276 29.9652 56.0619C29.8758 56.0934 29.7864 56.1244 29.6943 56.1567C29.615 56.1844 29.5357 56.2122 29.454 56.2408C29.2261 56.3008 29.2261 56.3008 28.773 56.3008C28.7356 54.5065 28.6982 52.7122 28.6597 50.8631C29.4447 50.6017 30.2298 50.3399 31.0386 50.0703C31.5034 49.8825 31.9532 49.6954 32.4051 49.4826C32.5176 49.4303 32.6301 49.3776 32.746 49.3237C35.2493 48.1306 37.4323 46.5564 39.4214 44.6326C39.4976 44.5612 39.5739 44.4893 39.6524 44.4157C41.1705 42.9563 42.3485 41.1281 43.3864 39.3086C43.4252 39.2413 43.464 39.1741 43.504 39.1048C44.1943 37.9008 44.7183 36.6442 45.1987 35.3437C45.2338 35.2494 45.2685 35.1551 45.3045 35.0579C45.9041 33.4118 46.3092 31.7319 46.6715 30.0195C46.6924 29.9232 46.7128 29.8268 46.7344 29.7275C46.8852 29.0076 46.986 28.2855 47.0751 27.5557C47.0894 27.4444 47.1033 27.3331 47.118 27.2185C47.3222 25.574 47.372 23.9486 47.372 22.2934C47.3724 21.943 47.3745 21.5926 47.3765 21.2422C47.3786 20.789 47.3724 20.337 47.3598 19.8838C47.3487 19.4883 47.3622 19.1123 47.4068 18.7194C47.4447 18.1959 47.4329 17.7734 47.1245 17.332C46.3003 16.6346 45.2648 16.2164 44.2866 15.7784C43.9047 15.6055 43.5269 15.4242 43.1482 15.2438C42.4151 14.896 41.6778 14.5574 40.9389 14.222C40.4277 13.9893 39.9188 13.7516 39.4099 13.5137C38.6851 13.1766 37.956 12.8506 37.2244 12.5287C36.8024 12.3416 36.3823 12.1507 35.9628 11.9583C34.1172 11.1132 32.2563 10.3109 30.3814 9.53291C30.2918 9.49562 30.2023 9.45833 30.11 9.41989C29.9417 9.34984 29.7733 9.28012 29.6047 9.21073C29.2648 9.0692 28.9672 8.92767 28.6597 8.72267C28.6231 8.48899 28.6231 8.48899 28.6315 8.19781C28.6338 8.08896 28.6361 7.9801 28.6384 7.86794C28.6427 7.75019 28.6469 7.63243 28.6513 7.51108C28.6543 7.39071 28.6573 7.27034 28.6604 7.14633C28.6703 6.76072 28.6827 6.37526 28.6951 5.98977C28.7022 5.72881 28.7093 5.46789 28.7161 5.20697C28.7333 4.56627 28.7524 3.92571 28.773 3.28516Z" fill="#D90BC6"/>
<path d="M28.8867 8.94922C29.5072 9.01772 30.0181 9.23272 30.5837 9.48065C30.7321 9.5447 30.7321 9.5447 30.8834 9.61001C31.2071 9.74999 31.5302 9.89119 31.8533 10.0325C32.0786 10.1304 32.304 10.2284 32.5294 10.3264C34.3134 11.1035 36.087 11.9022 37.8523 12.7206C38.3254 12.9399 38.7995 13.1566 39.2745 13.3716C40.083 13.7391 40.8863 14.1173 41.6873 14.5C41.8445 14.5747 41.8445 14.5747 42.0046 14.6509C42.7427 15.0029 43.4787 15.3587 44.2135 15.7181C44.4635 15.8401 44.7143 15.9611 44.9655 16.0812C45.32 16.251 45.6725 16.4242 46.025 16.5984C46.1324 16.649 46.2403 16.6997 46.3514 16.752C47.0747 17.1159 47.0747 17.1159 47.2998 17.5761C47.317 17.7198 47.3341 17.8636 47.3517 18.0117C47.3631 18.1058 47.375 18.2 47.3868 18.297C47.4664 19.0188 47.4828 19.7389 47.484 20.4645C47.4844 20.5756 47.4844 20.6866 47.4848 20.801C47.4856 21.0347 47.4856 21.2684 47.4856 21.5021C47.4861 21.8518 47.4881 22.2014 47.4901 22.5511C47.4942 23.9186 47.4293 25.258 47.2659 26.6158C47.2295 26.9206 47.1981 27.226 47.1658 27.5313C46.7807 30.8194 45.9413 34.0042 44.6326 37.0429C44.5971 37.1266 44.5611 37.2102 44.524 37.2964C41.8368 43.4722 36.7569 47.9333 30.5478 50.3803C29.4688 50.7818 29.4688 50.7818 28.8867 50.75C29.2299 50.0675 29.6443 49.4487 30.0923 48.8319C30.8474 47.7887 31.5634 46.7186 32.2851 45.6525C32.3694 45.5283 32.3694 45.5283 32.4554 45.4017C32.7813 44.9222 33.1029 44.4398 33.4179 43.9529C33.4596 43.8888 33.5012 43.8247 33.5441 43.7589C35.3045 41.0186 36.5825 37.8747 37.1563 34.664C37.1802 34.5333 37.1802 34.5333 37.2047 34.3999C37.4048 33.2612 37.508 32.1499 37.4824 30.9944C37.424 27.7167 37.424 27.7167 38.1902 26.9181C38.487 26.6664 38.793 26.4345 39.1114 26.211C39.6753 25.7639 39.9218 25.0608 40.0467 24.374C40.1045 23.436 39.7388 22.7239 39.174 21.9978C38.2242 21.259 37.4467 21.0992 36.25 21.1836C36.2103 21.0817 36.2103 21.0817 36.1699 20.9778C34.8707 17.7505 33.1027 14.9843 31.0718 12.183C30.6974 11.6661 30.3254 11.1475 29.9558 10.6272C29.9005 10.5499 29.8451 10.4725 29.7881 10.3929C29.4572 9.92562 29.1632 9.45076 28.8867 8.94922Z" fill="#F4F4F4"/>
<path d="M38.3311 21.3183C39.1796 21.7982 39.7915 22.5206 40.1011 23.4494C40.2396 24.4713 39.9562 25.1925 39.4214 26.0548C39.0681 26.4965 38.6761 26.8936 38.2739 27.2903C38.1587 27.4064 38.0436 27.5227 37.9287 27.6391C37.6191 27.9517 37.3075 28.2622 36.9954 28.5722C36.6671 28.8987 36.3404 29.227 36.0135 29.555C35.4645 30.1052 34.9141 30.654 34.3629 31.202C33.728 31.8331 33.0957 32.4667 32.4645 33.1015C31.92 33.6492 31.3741 34.1955 30.8271 34.7407C30.5016 35.0652 30.1765 35.3901 29.8526 35.7162C29.5479 36.023 29.2415 36.328 28.9338 36.6318C28.822 36.7427 28.7107 36.8542 28.6001 36.9663C27.7453 37.8317 26.8008 38.6099 25.5444 38.714C24.1654 38.6236 23.1757 37.6627 22.2597 36.7254C22.1412 36.6065 22.0226 36.4878 21.9039 36.3691C21.6573 36.122 21.4119 35.8739 21.1674 35.6248C20.8559 35.3074 20.5421 34.9923 20.2275 34.678C19.9831 34.4335 19.7397 34.1882 19.4966 33.9426C19.3812 33.8262 19.2657 33.71 19.1499 33.5939C18.1539 32.5934 17.4437 31.8405 17.4023 30.3949C17.4105 29.5234 17.6038 28.9773 18.2015 28.3461C18.9739 27.6424 19.6498 27.4664 20.6858 27.4978C21.875 27.5897 22.5198 28.3052 23.3355 29.1134C23.4251 29.2021 23.5147 29.2908 23.6071 29.3822C24.2371 30.007 24.8636 30.6352 25.4878 31.2658C26.0735 30.7765 26.618 30.2623 27.1535 29.719C27.2369 29.6349 27.3203 29.5508 27.4062 29.4642C27.586 29.2828 27.7658 29.1013 27.9454 28.9196C28.2304 28.6315 28.5159 28.344 28.8016 28.0567C29.6135 27.24 30.4251 26.4229 31.2348 25.6041C31.7312 25.1021 32.2288 24.6013 32.7271 24.1012C32.916 23.9112 33.1045 23.7208 33.2925 23.5299C33.5562 23.2624 33.8212 22.9963 34.0867 22.7305C34.163 22.6525 34.2392 22.5744 34.3178 22.494C35.42 21.3986 36.7951 20.5837 38.3311 21.3183Z" fill="#D90BC6"/>
<path d="M9.17559 12.2344C9.19385 12.9243 9.12589 13.5652 9.01274 14.2451C8.77952 15.6602 8.70338 17.0551 8.69946 18.4887C8.69914 18.5695 8.69881 18.6502 8.69848 18.7334C8.69681 19.1626 8.69575 19.5918 8.69526 20.021C8.69477 20.3676 8.69321 20.7142 8.6906 21.0608C8.6382 28.1997 10.015 35.2264 13.367 41.5742C13.4085 41.6538 13.4501 41.7331 13.4929 41.8152C14.7727 44.2479 16.373 46.467 18.2381 48.4843C18.3333 48.5914 18.4285 48.6984 18.5266 48.8082C19.7427 50.1708 21.0839 51.3533 22.5428 52.4492C22.6194 52.5072 22.696 52.5652 22.775 52.6248C24.5934 53.9935 26.5251 55.1462 28.5467 56.1873C28.1768 56.3107 28.1188 56.2996 27.7697 56.1783C27.6819 56.1481 27.5942 56.1175 27.5038 56.0864C27.4087 56.0521 27.3136 56.0178 27.2156 55.9823C27.1161 55.9467 27.0165 55.9112 26.9139 55.8744C23.6226 54.674 20.5137 53.0733 17.785 50.8632C17.6836 50.7835 17.5823 50.7043 17.4778 50.6222C16.336 49.713 15.1808 48.7216 14.2476 47.5939C14.0872 47.4003 13.9213 47.2116 13.7538 47.0241C7.32131 39.8099 5.06421 29.5597 5.07622 20.1216C5.07626 20.0296 5.0763 19.9376 5.0763 19.8429C5.07822 18.5904 5.1064 17.343 5.18948 16.093C5.20141 15.9012 5.20141 15.9012 5.21354 15.7054C5.3103 14.4536 5.3103 14.4536 5.66386 13.9336C6.0692 13.6507 6.5002 13.4387 6.94537 13.2256C7.06239 13.1672 7.17945 13.1088 7.30003 13.0486C7.52455 12.9368 7.74961 12.8262 7.97536 12.7169C8.21141 12.6023 8.44488 12.4844 8.67777 12.3636C8.94903 12.2344 8.94903 12.2344 9.17559 12.2344Z" fill="url(#paint1_linear_271_4171)"/>
<path d="M13.2539 15.7461C13.4214 16.0811 13.323 16.3226 13.2636 16.6917C13.0626 18.1211 13.096 19.5663 13.0981 21.0066C13.0982 21.1551 13.0982 21.3037 13.0982 21.4568C13.1032 24.5586 13.3478 27.5044 14.0905 30.5247C14.1573 30.801 14.2185 31.0779 14.2783 31.3559C15.4288 36.5359 18.0752 41.3013 21.6367 45.1992C21.7775 45.3576 21.7775 45.3576 21.9212 45.5198C22.4751 46.1406 23.0377 46.7059 23.6758 47.2381C23.8282 47.3737 23.8282 47.3737 23.9837 47.5118C25.3857 48.7482 26.9592 49.7689 28.5469 50.75C28.3203 50.8631 28.3203 50.8631 27.899 50.7328C27.718 50.6667 27.5375 50.5989 27.3574 50.5307C27.261 50.4943 27.1646 50.4579 27.0653 50.4204C24.0709 49.2763 21.2618 47.7528 18.918 45.539C18.7743 45.4181 18.6304 45.298 18.4861 45.1779C14.3622 41.5603 12.0398 36.1747 10.875 30.9258C10.853 30.8285 10.831 30.7312 10.8083 30.6309C10.5595 29.5186 10.3751 28.403 10.2307 27.2724C10.2171 27.1667 10.2036 27.061 10.1897 26.9521C9.93229 24.805 9.932 22.6559 9.96615 20.4972C9.97265 19.9776 9.95651 19.469 9.91207 18.9507C9.8504 17.822 9.8504 17.822 10.1953 17.332C11.0988 16.6087 12.1829 16.1628 13.2539 15.7461Z" fill="white"/>
<path d="M6.12398 44.6465C6.42011 44.9332 6.50613 45.1313 6.57001 45.5386C6.3329 46.1668 6.3329 46.1668 6.00361 46.3318C5.72317 46.3518 5.44881 46.3628 5.16817 46.3669C5.09195 46.3702 5.01573 46.3734 4.93719 46.3771C4.55386 46.382 4.34114 46.3579 4.02695 46.1316C3.73989 45.7179 3.7962 45.4679 3.85127 44.972C4.3087 44.2969 5.44379 44.3965 6.12398 44.6465Z" fill="#D90BC6"/>
<path d="M6.12442 48.1596C6.42051 48.4459 6.50653 48.6444 6.57045 49.0517C6.33334 49.6799 6.33334 49.6799 6.00405 49.8445C5.72361 49.8645 5.44925 49.8759 5.1686 49.88C5.09235 49.8833 5.01613 49.8865 4.93758 49.8898C4.55156 49.8947 4.34186 49.8718 4.02737 49.6406C3.77279 49.2796 3.79778 49.0296 3.85169 48.5983C4.28431 47.8157 5.36924 47.8823 6.12442 48.1596Z" fill="#D90BC6"/>
<path d="M6.23062 51.7702C6.50812 52.0479 6.54394 52.1741 6.57045 52.5634C6.31251 53.2018 6.31251 53.2018 6.00405 53.3562C5.72361 53.3762 5.44925 53.3876 5.1686 53.3917C5.09235 53.395 5.01613 53.3982 4.93758 53.4015C4.55156 53.4064 4.34186 53.3835 4.02737 53.1519C3.77279 52.7913 3.79778 52.5413 3.85169 52.11C4.00294 51.8228 4.08772 51.6905 4.39908 51.59C5.02189 51.4724 5.6641 51.4614 6.23062 51.7702Z" fill="#D90BC6"/>
<path d="M28.207 55.9603C28.3982 56.1392 28.3982 56.1392 28.5469 56.3002C28.3839 56.2679 28.221 56.2348 28.0584 56.2009C27.9223 56.1735 27.9223 56.1735 27.7836 56.1454C27.5273 56.0735 27.5273 56.0735 27.1875 55.8468C27.6209 55.7026 27.7918 55.7871 28.207 55.9603Z" fill="#D90BC6"/>
</g>
<defs>
<linearGradient id="paint0_linear_271_4171" x1="52.3659" y1="29.8662" x2="5.07618" y2="29.8662" gradientUnits="userSpaceOnUse">
<stop stop-color="#F800EA"/>
<stop offset="1" stop-color="#BB00A3"/>
</linearGradient>
<linearGradient id="paint1_linear_271_4171" x1="28.5467" y1="34.2546" x2="5.07618" y2="34.2546" gradientUnits="userSpaceOnUse">
<stop stop-color="#F800EA"/>
<stop offset="1" stop-color="#BB00A3"/>
</linearGradient>
</defs>
</svg>
