<svg width="17" height="18" viewBox="0 0 17 18" fill="none" xmlns="http://www.w3.org/2000/svg">
<g clip-path="url(#clip0_409_142)">
<g clip-path="url(#clip1_409_142)">
<path d="M15.3867 12.4707V9.4707H12.3867" stroke="#20242B" stroke-width="1.5" stroke-linecap="round" stroke-linejoin="round"/>
<path d="M15.3867 9.4707L12.02 12.8387C11.8285 13.0301 11.5888 13.1662 11.3263 13.2325C11.0637 13.2988 10.7881 13.2929 10.5287 13.2153L6.72005 12.1967C6.46581 12.1288 6.19819 12.129 5.94404 12.1972C5.68989 12.2654 5.45815 12.3993 5.27205 12.5853L1.38672 16.4733" stroke="#20242B" stroke-width="1.5" stroke-linecap="round" stroke-linejoin="round"/>
<path d="M8.38609 4.47461H7.03076C6.82305 4.47476 6.62186 4.54717 6.4617 4.67943C6.30154 4.8117 6.19239 4.99557 6.15297 5.19951C6.11356 5.40344 6.14633 5.61474 6.24567 5.79716C6.34501 5.97958 6.50473 6.12175 6.69743 6.19928L8.07343 6.74928C8.26656 6.82654 8.42673 6.96868 8.5264 7.15125C8.62607 7.33383 8.65901 7.54542 8.61955 7.74966C8.5801 7.95389 8.47071 8.13799 8.3102 8.2703C8.1497 8.40261 7.9481 8.47485 7.74009 8.47461H6.38609" stroke="#20242B" stroke-width="1.5" stroke-linecap="round" stroke-linejoin="round"/>
<path d="M7.38672 4.47461V3.97461" stroke="#20242B" stroke-width="1.5" stroke-linecap="round" stroke-linejoin="round"/>
<path d="M7.38672 8.97461V8.47461" stroke="#20242B" stroke-width="1.5" stroke-linecap="round" stroke-linejoin="round"/>
<path d="M12.2876 7.46303C12.4648 6.58623 12.4035 5.67796 12.1102 4.83292C11.8168 3.98787 11.3021 3.237 10.6198 2.65859C9.93747 2.08018 9.11244 1.69542 8.23077 1.54441C7.34909 1.39341 6.44304 1.4817 5.60711 1.80008C4.77117 2.11846 4.03595 2.65527 3.47811 3.35453C2.92026 4.05379 2.56023 4.88991 2.43554 5.77569C2.31085 6.66147 2.42607 7.56448 2.76919 8.39057C3.11231 9.21666 3.67077 9.93558 4.38632 10.4724" stroke="#20242B" stroke-width="1.5" stroke-linecap="round" stroke-linejoin="round"/>
</g>
</g>
<defs>
<clipPath id="clip0_409_142">
<rect width="16" height="17" fill="white" transform="translate(0.386719 0.472656)"/>
</clipPath>
<clipPath id="clip1_409_142">
<rect width="16" height="17" fill="white" transform="translate(0.386719 0.472656)"/>
</clipPath>
</defs>
</svg>
