<svg width="22" height="22" viewBox="0 0 22 22" fill="none" xmlns="http://www.w3.org/2000/svg">
<path d="M21.2331 8.12283V8.11954C21.2228 8.08392 21.212 8.04829 21.2013 8.01267C21.1989 8.00376 21.1961 7.99486 21.1933 7.98642C21.1731 7.91892 21.1525 7.85142 21.1309 7.78439L21.1281 7.77501C20.9966 7.3664 20.8401 6.96627 20.6594 6.57689C20.4843 6.19123 20.2823 5.81843 20.0547 5.46126C19.1756 4.04908 17.9751 2.86469 16.5512 2.0047C14.9167 1.01749 13.0429 0.497085 11.1334 0.500012C10.8053 0.500012 10.4772 0.51595 10.1575 0.546887C9.02687 0.66595 7.12094 1.07236 5.57453 2.43033C11.2037 -0.44405 18.7244 3.0172 18.0845 9.45314C17.8567 11.75 15.9067 13.3283 14.0912 13.5945C13.7683 13.6439 13.4401 13.6472 13.1162 13.6044C8.68234 12.988 8.95375 9.35376 10.3009 7.79986C8.51969 7.78861 7.13828 9.99314 7.80953 12.1592C6.265 9.29142 7.82594 4.79986 11.1344 3.44048C7.24609 2.87798 3.60109 4.76236 2.42969 8.03751C2.56958 6.84036 2.84881 5.66363 3.26172 4.53126C3.26172 4.53126 1.14203 6.20657 0.709844 9.7297C0.703281 9.78407 0.697188 9.83845 0.691563 9.89329C0.689219 9.91204 0.687344 9.93079 0.685469 9.95001C0.668906 10.1141 0.656406 10.2792 0.647969 10.4455V10.4834C0.644688 10.5528 0.641875 10.6241 0.64 10.6925V10.7511C0.64 10.8336 0.636719 10.9161 0.636719 10.9991C0.636719 16.798 5.33781 21.4991 11.1367 21.4991C16.9356 21.4991 21.6334 16.7989 21.6334 11C21.634 10.027 21.4992 9.05871 21.2331 8.12283Z" fill="white"/>
</svg>
