<svg width="25" height="24" viewBox="0 0 25 24" fill="none" xmlns="http://www.w3.org/2000/svg">
<path d="M22.2312 9.12283V9.11954C22.2209 9.08392 22.2101 9.04829 22.1993 9.01267C22.197 9.00376 22.1941 8.99486 22.1913 8.98642C22.1712 8.91892 22.1505 8.85142 22.129 8.78439L22.1262 8.77501C21.9946 8.3664 21.8381 7.96627 21.6574 7.57689C21.4824 7.19123 21.2803 6.81843 21.0527 6.46126C20.1736 5.04908 18.9732 3.86469 17.5493 3.0047C15.9148 2.01749 14.041 1.49709 12.1315 1.50001C11.8034 1.50001 11.4752 1.51595 11.1555 1.54689C10.0249 1.66595 8.11898 2.07236 6.57258 3.43033C12.2018 0.55595 19.7224 4.0172 19.0826 10.4531C18.8548 12.75 16.9048 14.3283 15.0893 14.5945C14.7664 14.6439 14.4381 14.6472 14.1143 14.6044C9.68039 13.988 9.9518 10.3538 11.299 8.79986C9.51774 8.78861 8.13633 10.9931 8.80758 13.1592C7.26305 10.2914 8.82398 5.79986 12.1324 4.44048C8.24414 3.87798 4.59914 5.76236 3.42773 9.03751C3.56763 7.84036 3.84686 6.66363 4.25977 5.53126C4.25977 5.53126 2.14008 7.20657 1.70789 10.7297C1.70133 10.7841 1.69523 10.8385 1.68961 10.8933C1.68727 10.912 1.68539 10.9308 1.68352 10.95C1.66695 11.1141 1.65445 11.2792 1.64602 11.4455V11.4834C1.64273 11.5528 1.63992 11.6241 1.63805 11.6925V11.7511C1.63805 11.8336 1.63477 11.9161 1.63477 11.9991C1.63477 17.798 6.33586 22.4991 12.1348 22.4991C17.9337 22.4991 22.6315 17.7989 22.6315 12C22.632 11.027 22.4973 10.0587 22.2312 9.12283Z" fill="#D90BC6"/>
</svg>
