<svg width="56" height="56" viewBox="0 0 56 56" fill="none" xmlns="http://www.w3.org/2000/svg">
<g clip-path="url(#clip0_168_786)">
<path d="M55.1996 5.5254C55.1715 4.71766 54.9715 3.92521 54.6129 3.20096C53.7329 1.56769 52.2472 0.929688 50.4 0.929688C35.4217 0.946701 20.4434 0.950245 5.46515 0.940321C5.25259 0.940321 5.02728 0.940321 4.80835 0.950954C3.69599 0.990942 2.64046 1.45266 1.85577 2.24248C1.07108 3.03231 0.615958 4.09113 0.582685 5.20427C0.538048 7.01193 0.542299 8.81959 0.582685 10.6294C0.605786 11.6339 0.974811 12.5996 1.62739 13.3634C2.27998 14.1271 3.17609 14.642 4.1643 14.821C4.62555 14.9103 5.10168 14.921 5.63945 14.9763V15.7908C5.63945 25.8272 5.63945 35.8629 5.63945 45.8979C5.63945 51.4272 9.79922 55.604 15.3172 55.6146C23.7005 55.6316 32.0839 55.6259 40.4672 55.5976C41.5168 55.5955 42.5603 55.4385 43.5641 55.1318C47.5857 53.8729 50.1535 50.2171 50.1535 45.8532C50.162 35.7984 50.162 25.7428 50.1535 15.6866V14.9422C50.3533 14.9422 50.451 14.9252 50.5488 14.9231C53.3971 14.8721 55.2081 13.0325 55.2251 10.1743C55.2293 8.62394 55.2889 7.06935 55.1996 5.5254ZM46.3444 15.5717C46.3444 25.6266 46.3444 35.6814 46.3444 45.7363C46.3444 48.8242 44.5249 51.1422 41.6681 51.7015C41.2571 51.7747 40.8399 51.8074 40.4225 51.7994C32.0803 51.7994 23.7374 51.7994 15.3938 51.7994C12.4881 51.7994 10.2435 50.0598 9.62067 47.3334C9.50793 46.8094 9.45445 46.2744 9.46125 45.7384C9.45275 35.6835 9.45275 25.6287 9.46125 15.5739V14.9359H46.3444V15.5717ZM51.4118 9.91057C51.4118 11.042 51.348 11.1058 50.2427 11.1058H5.42477C4.51289 11.1058 4.38111 10.9803 4.38111 10.0871C4.37827 8.6608 4.37685 7.23027 4.37685 5.79548C4.37685 4.85975 4.47676 4.75767 5.39288 4.75767H50.2746C51.3502 4.75767 51.4097 4.82147 51.4118 5.91883V9.91057Z" fill="#F800EA"/>
<path d="M35.4948 38.6376C33.45 40.6934 31.3995 42.7442 29.3433 44.7901C28.4357 45.6918 27.3538 45.6875 26.4526 44.7901C24.3978 42.7442 22.3473 40.6934 20.3011 38.6376C19.4636 37.787 19.4317 36.5769 20.2076 35.8219C20.9834 35.067 22.1567 35.1201 22.9708 35.9346C23.9401 36.8959 24.8839 37.8699 25.9807 38.963V32.8638C25.9807 29.7064 25.9807 26.5476 25.9807 23.3874C25.9807 22.1815 26.7735 21.299 27.8576 21.2777C28.9416 21.2564 29.7918 22.1581 29.7918 23.3937C29.7918 28.2992 29.7918 33.2061 29.7918 38.1145V38.8609C29.9619 38.7248 30.0852 38.6483 30.1851 38.5462C31.0587 37.6764 31.9238 36.8002 32.7996 35.9346C33.6243 35.1223 34.8125 35.084 35.5628 35.8219C36.3131 36.5599 36.3344 37.7933 35.4948 38.6376Z" fill="#F800EA"/>
</g>
<defs>
<clipPath id="clip0_168_786">
<rect width="54.6977" height="54.6977" fill="white" transform="translate(0.550781 0.929688)"/>
</clipPath>
</defs>
</svg>
