<svg width="56" height="56" viewBox="0 0 56 56" fill="none" xmlns="http://www.w3.org/2000/svg">
<g clip-path="url(#clip0_168_767)">
<path d="M55.6698 15.03C55.593 19.6784 54.177 23.1813 51.3195 26.0719C48.6184 28.8068 45.9045 31.5225 43.1778 34.2189C41.8237 35.5608 40.0154 35.6291 38.8105 34.4323C37.6057 33.2355 37.6377 31.4286 38.9811 30.0654C41.7043 27.3071 44.4871 24.6085 47.1804 21.8245C49.6114 19.3136 50.3322 16.2779 49.2958 12.9649C48.2595 9.65193 45.8839 7.58263 42.472 6.94264C39.446 6.37519 36.7698 7.24344 34.569 9.42793C31.9205 12.0562 29.3125 14.7292 26.6299 17.3211C26.0496 17.8816 25.3397 18.2898 24.5635 18.5094C23.4077 18.8123 22.1986 18.1126 21.6101 17.0651C21.3131 16.535 21.1893 15.9254 21.2558 15.3214C21.3223 14.7174 21.5759 14.1493 21.9811 13.6967C22.9876 12.598 24.0645 11.5634 25.1222 10.4967C27.0606 8.56395 28.918 6.53732 30.9695 4.73682C35.6481 0.634492 41.0155 -0.329757 46.7262 2.12567C52.5457 4.63015 55.3499 9.3554 55.6698 15.03Z" fill="#F800EA"/>
<path d="M34.5732 42.8159C32.9333 44.5438 31.2337 46.2142 29.5299 47.8782C27.905 49.4654 26.3312 51.1251 24.5677 52.548C22.0556 54.5767 19.0574 55.4023 15.3213 55.4876C9.58498 55.1634 4.84238 52.3816 2.33034 46.5662C-0.136919 40.8596 0.782172 35.4496 4.93408 30.8118C7.68069 27.742 10.7045 24.9197 13.6324 22.0184C14.9247 20.7384 16.7522 20.7384 17.9208 21.9139C19.0894 23.0893 19.0787 24.8855 17.7843 26.2039C14.995 29.0433 12.1056 31.7889 9.37387 34.6816C8.44392 35.6682 7.75434 36.8563 7.35889 38.1533C6.96344 39.4503 6.87282 40.8212 7.09408 42.159C7.31535 43.4968 7.84253 44.7654 8.6345 45.8659C9.42647 46.9663 10.4618 47.8689 11.6599 48.5032C15.1017 50.3421 19.2109 49.7576 22.0812 46.9502C24.8001 44.29 27.4721 41.5828 30.1547 38.8864C31.044 37.9925 32.0547 37.5061 33.3236 37.8666C35.52 38.4938 36.196 41.1092 34.5732 42.8159Z" fill="#F800EA"/>
<path d="M39.7004 20.1538C39.4872 20.5634 39.2462 21.3997 38.7152 21.9394C33.2192 27.503 27.6954 33.0397 22.1439 38.5492C20.8814 39.8036 19.1243 39.7866 17.9429 38.6218C16.7615 37.457 16.704 35.6778 17.9429 34.4235C23.4759 28.847 29.0282 23.2905 34.5996 17.7539C35.5101 16.8472 36.6297 16.5934 37.8367 17.1139C38.9946 17.5918 39.5704 18.5197 39.7004 20.1538Z" fill="#F800EA"/>
</g>
<defs>
<clipPath id="clip0_168_767">
<rect width="54.6977" height="54.6977" fill="white" transform="translate(0.972656 0.790039)"/>
</clipPath>
</defs>
</svg>
