<svg width="56" height="55" viewBox="0 0 56 55" fill="none" xmlns="http://www.w3.org/2000/svg">
<g clip-path="url(#clip0_168_756)">
<path d="M43.5459 24.3726C43.5459 25.9432 42.2512 26.8494 40.7693 26.354C39.9187 26.07 39.4746 25.3886 39.4729 24.3252C39.4729 20.0986 39.4831 15.8889 39.4644 11.6707C39.4644 10.7053 39.4763 9.71291 39.2688 8.77967C38.6546 6.03067 36.2999 4.22167 33.3958 4.20307C29.4045 4.1811 25.4132 4.20307 21.4201 4.20307C18.0243 4.20307 14.6273 4.20307 11.2292 4.20307C7.33825 4.20307 4.81348 6.71369 4.81348 10.5819C4.81348 19.8399 4.81348 29.0991 4.81348 38.3593C4.81348 42.1768 7.36547 44.6959 11.2037 44.701C15.1524 44.701 19.1029 44.701 23.0517 44.701C24.3532 44.701 25.1529 45.4296 25.1971 46.6199C25.2447 47.8676 24.457 48.7382 23.198 48.7433C18.9447 48.7568 14.7033 48.8092 10.4585 48.7264C5.15375 48.625 0.837479 44.2174 0.738802 38.9257C0.738802 38.8614 0.738802 38.7989 0.738802 38.7363V24.4351C0.730295 19.7114 0.730295 14.9861 0.738802 10.2624C0.755815 5.33412 4.05129 1.32896 8.90858 0.353458C9.61729 0.218813 10.3375 0.153131 11.0591 0.157342C18.4474 0.149453 25.8362 0.145508 33.2257 0.145508C39.1327 0.153961 43.534 4.52261 43.5476 10.3841C43.5578 15.0492 43.5572 19.712 43.5459 24.3726Z" fill="#F800EA"/>
<path d="M54.815 30.003C53.8232 27.7764 51.8122 26.9209 49.7621 26.833C47.775 26.8584 46.3254 27.3892 45.1243 28.549C40.5307 33.0462 35.9235 37.5348 31.3571 42.0607C30.7864 42.6223 30.3406 43.2968 30.0488 44.0405C29.1029 46.5849 28.2624 49.1699 27.3913 51.7431C27.2755 52.0593 27.2001 52.3887 27.1668 52.7237C27.0749 54.0627 28.3577 55.1548 29.4789 54.7524C31.711 53.9578 33.933 53.1294 36.1957 52.4312C38.0215 51.87 39.6733 50.8559 40.9952 49.4844C45.0392 45.393 49.1445 41.3692 53.226 37.3117C53.4353 37.1037 53.6496 36.8975 53.8436 36.6743C55.5874 34.6573 55.8614 32.3462 54.815 30.003ZM50.708 34.3513C46.2426 38.7944 41.7693 43.2312 37.288 47.6618C37.0226 47.9222 36.6074 48.0693 36.2451 48.1927C35.0643 48.5849 33.8717 48.9417 32.5481 49.3559C33.0074 47.8935 33.3987 46.5646 33.8513 45.2527C33.9733 44.9618 34.1587 44.7014 34.394 44.4902C38.8322 40.0742 43.2721 35.6622 47.7137 31.2541C48.6613 30.3141 49.8302 30.2786 50.6927 31.1442C51.5281 31.9878 51.5485 33.5162 50.708 34.3513Z" fill="#F800EA"/>
<path d="M33.2259 15.0656C32.9452 15.8889 32.263 16.3454 31.2456 16.3471C28.2104 16.3471 25.1752 16.3471 22.1384 16.3471C19.1015 16.3471 16.068 16.3471 13.0312 16.3471C11.7075 16.342 10.9045 15.5305 10.9385 14.2642C10.9624 13.1365 11.7109 12.3571 12.8474 12.3064C13.3987 12.2827 13.9516 12.3064 14.5028 12.3064C20.0605 12.3064 25.6227 12.3064 31.1894 12.3064C32.8125 12.303 33.7363 13.5693 33.2259 15.0656Z" fill="#F800EA"/>
<path d="M33.2256 25.1962C32.9432 26.0178 32.2592 26.4709 31.2401 26.4726C28.1777 26.4794 25.121 26.4794 22.07 26.4726C19.0552 26.4726 16.0405 26.4726 13.0257 26.4726C11.697 26.4726 10.8957 25.6543 10.9246 24.3846C10.9501 23.257 11.7004 22.4759 12.8403 22.4336C13.5599 22.4066 14.283 22.4252 15.0044 22.4252C20.3964 22.4252 25.7885 22.4252 31.1806 22.4252C32.8156 22.4286 33.7445 23.6999 33.2256 25.1962Z" fill="#F800EA"/>
<path d="M27.1317 35.2608C27.0244 35.6525 26.7874 35.9969 26.459 36.2383C26.1305 36.4797 25.7298 36.6041 25.3215 36.5913C21.1623 36.606 17.002 36.606 12.8405 36.5913C11.6802 36.5913 10.9299 35.746 10.9316 34.5761C10.9333 33.4061 11.704 32.5743 12.9103 32.5625C14.9893 32.5405 17.07 32.5625 19.1508 32.5625C21.1447 32.5625 23.1404 32.5524 25.136 32.5625C26.6893 32.5642 27.5893 33.8001 27.1317 35.2608Z" fill="#F800EA"/>
</g>
<defs>
<clipPath id="clip0_168_756">
<rect width="54.6977" height="54.6977" fill="white" transform="translate(0.730469 0.145508)"/>
</clipPath>
</defs>
</svg>
