<svg width="20" height="20" viewBox="0 0 20 20" fill="none" xmlns="http://www.w3.org/2000/svg">
<path d="M7.57086 4.35047C5.53086 6.64047 4.13086 9.93047 4.00086 10.2405L0.380859 8.69047L4.43086 4.64047C4.90086 4.17047 5.58086 3.96047 6.24086 4.09047L7.57086 4.35047ZM9.55086 15.0005C9.55086 15.0005 13.2909 13.4505 15.4409 11.3005C20.8409 5.90047 19.9409 1.68047 19.6509 0.730473C18.7009 0.430473 14.4809 -0.459527 9.08086 4.94047C6.93086 7.09047 5.38086 10.8305 5.38086 10.8305L9.55086 15.0005ZM16.0309 12.8105C13.7409 14.8505 10.4509 16.2505 10.1409 16.3805L11.6909 20.0005L15.7409 15.9505C16.2109 15.4805 16.4209 14.8005 16.2909 14.1405L16.0309 12.8105ZM7.38086 16.0005C7.38086 16.8305 7.04086 17.5805 6.50086 18.1205C5.32086 19.3005 0.380859 20.0005 0.380859 20.0005C0.380859 20.0005 1.08086 15.0605 2.26086 13.8805C2.67966 13.4595 3.21411 13.1724 3.79636 13.0558C4.37861 12.9392 4.98238 12.9982 5.53103 13.2253C6.07968 13.4525 6.54844 13.8376 6.8778 14.3317C7.20716 14.8258 7.38225 15.4067 7.38086 16.0005ZM11.3809 7.00047C11.3809 5.90047 12.2809 5.00047 13.3809 5.00047C14.4809 5.00047 15.3809 5.90047 15.3809 7.00047C15.3809 8.10047 14.4809 9.00047 13.3809 9.00047C12.2809 9.00047 11.3809 8.10047 11.3809 7.00047Z" fill="#D90BC6"/>
</svg>
