<svg width="55" height="56" viewBox="0 0 55 56" fill="none" xmlns="http://www.w3.org/2000/svg">
<g clip-path="url(#clip0_168_777)">
<path d="M49.3721 46.1569C49.3464 50.7429 46.289 54.3408 41.7705 55.096C41.199 55.1725 40.6222 55.2029 40.0457 55.1867C34.9586 55.1936 29.8721 55.1936 24.7861 55.1867C19.5722 55.1867 14.3566 55.2004 9.14275 55.1867C4.56434 55.1713 1.0085 52.1522 0.236008 47.6519C0.158161 47.1644 0.12263 46.6711 0.129812 46.1775C0.129812 35.7691 0.129812 25.362 0.129812 14.9559C0.129812 10.5035 3.04163 6.98613 7.37682 6.12133C7.92156 6.01121 8.47566 5.95386 9.03142 5.95009C14.6267 5.93981 20.2259 5.93981 25.8292 5.95009C27.8846 5.95009 29.2309 7.72248 28.6108 9.56852C28.2289 10.709 27.2029 11.4231 25.8977 11.4248C22.1991 11.4248 18.5017 11.4248 14.8054 11.4248C12.9213 11.4248 11.0371 11.4248 9.1633 11.4248C7.06679 11.4248 5.58519 12.8547 5.58177 14.9525C5.56578 25.3608 5.56578 35.768 5.58177 46.1741C5.58177 48.2735 7.04281 49.7223 9.15131 49.7257C19.5425 49.7383 29.9291 49.7383 40.3112 49.7257C42.4505 49.7257 43.8825 48.2564 43.8842 46.1295C43.8842 39.6975 43.8842 33.265 43.8842 26.8318C43.8842 24.7529 45.8454 23.4069 47.685 24.2118C48.884 24.7358 49.3653 25.7204 49.3635 26.9877C49.3635 30.577 49.3635 34.1669 49.3635 37.7573C49.3755 40.5572 49.3875 43.3571 49.3721 46.1569Z" fill="#F800EA"/>
<path d="M54.8192 19.5739C54.8192 20.9233 54.0176 21.9576 52.7947 22.283C51.6265 22.5929 50.335 22.1117 49.7749 21.0243C49.5257 20.5102 49.3951 19.9466 49.393 19.3752C49.3553 16.4897 49.3759 13.6042 49.3759 10.7205V10.0355L49.1361 9.86422C49.0076 10.0858 48.8597 10.2955 48.6941 10.491C41.4306 17.7678 34.1642 25.0395 26.8949 32.306C26.1019 33.0989 25.2146 33.5458 24.0739 33.2616C23.6189 33.1558 23.199 32.9345 22.8546 32.6192C22.5101 32.3038 22.2528 31.905 22.1075 31.4612C21.9622 31.0175 21.9338 30.5437 22.025 30.0858C22.1162 29.6278 22.324 29.2011 22.6282 28.8468C22.7995 28.6499 22.9811 28.4735 23.1626 28.2937C30.3851 21.0706 37.6092 13.8491 44.8351 6.62939C45.0326 6.4645 45.2454 6.31885 45.4706 6.19442L45.3284 5.94954H44.6638C41.651 5.94954 38.6364 5.9581 35.6235 5.93927C34.4622 5.9307 33.6212 5.33991 33.1759 4.28332C32.9588 3.81281 32.8874 3.28819 32.9707 2.77679C33.054 2.2654 33.2883 1.79057 33.6435 1.41324C34.2156 0.759077 34.9521 0.49707 35.8136 0.49707C38.4 0.507345 40.9864 0.49707 43.5728 0.49707C46.3287 0.49707 49.0864 0.49707 51.8423 0.49707C53.7419 0.49707 54.821 1.57592 54.8227 3.47675C54.8272 8.8436 54.8261 14.2093 54.8192 19.5739Z" fill="#F800EA"/>
</g>
<defs>
<clipPath id="clip0_168_777">
<rect width="54.6977" height="54.6977" fill="white" transform="translate(0.128906 0.49707)"/>
</clipPath>
</defs>
</svg>
