<svg width="160" height="123" viewBox="0 0 160 123" fill="none" xmlns="http://www.w3.org/2000/svg">
<g clip-path="url(#clip0_523_775)">
<path d="M80.6142 102.147C116.487 102.147 145.192 96.1088 144.728 88.66C144.264 81.2113 114.807 75.1729 78.9344 75.1729C43.0613 75.1729 14.3565 81.2113 14.8204 88.66C15.2842 96.1088 44.7411 102.147 80.6142 102.147Z" fill="#EEEDF7"/>
<path d="M80.6142 102.147C116.487 102.147 145.192 96.1088 144.728 88.66C144.264 81.2113 114.807 75.1729 78.9344 75.1729C43.0613 75.1729 14.3565 81.2113 14.8204 88.66C15.2842 96.1088 44.7411 102.147 80.6142 102.147Z" stroke="#6E58FE" stroke-opacity="0.5" stroke-width="2.10653" stroke-linecap="round"/>
<path d="M80.7951 120.417C124.08 120.417 158.715 113.131 158.155 104.144C157.596 95.1561 122.053 87.8701 78.7683 87.8701C35.4836 87.8701 0.848261 95.1561 1.40797 104.144C1.96767 113.131 37.5105 120.417 80.7951 120.417Z" stroke="#FF00FF" stroke-width="2.10653" stroke-linecap="round"/>
<path d="M158.156 104.144C158.178 104.481 158.149 104.815 158.072 105.148C156.105 113.668 122.457 120.417 80.7964 120.417C43.6587 120.417 12.2203 115.054 3.68618 107.854C2.27358 106.662 1.48852 105.42 1.40903 104.144C0.849327 95.1559 35.4847 87.8701 78.769 87.8701C122.054 87.8701 157.596 95.1559 158.156 104.144Z" fill="url(#paint0_linear_523_775)" fill-opacity="0.25"/>
<path d="M118.837 58.2824C118.837 82.1213 92.9906 99.4601 83.5869 104.979C82.5179 105.607 81.9838 105.92 81.2294 106.083C80.6443 106.209 79.7902 106.209 79.2051 106.083C78.4507 105.92 77.9166 105.607 76.8477 104.979C67.4437 99.4601 41.5977 82.1213 41.5977 58.2824V35.0553C41.5977 31.1723 41.5977 29.2307 42.2289 27.5618C42.7865 26.0875 43.6927 24.772 44.869 23.729C46.2006 22.5484 48.0076 21.8667 51.6214 20.5032L77.5054 10.7378L77.5077 10.737C78.5094 10.3589 79.0111 10.1699 79.5266 10.0949C79.985 10.0283 80.4503 10.0283 80.9079 10.0949C81.4234 10.1699 81.9251 10.3589 82.9268 10.737L82.9291 10.7378L108.814 20.5032C112.427 21.8667 114.234 22.5484 115.565 23.729C116.742 24.772 117.648 26.0875 118.206 27.5618C118.837 29.2307 118.837 31.1723 118.837 35.0553V58.2824Z" fill="#EEEDF7"/>
<path d="M65.7349 55.854L75.3898 65.5676L97.1135 43.712M118.837 58.2824C118.837 82.1213 92.9906 99.4601 83.5869 104.979C82.5179 105.607 81.9838 105.92 81.2294 106.083C80.6443 106.209 79.7902 106.209 79.2051 106.083C78.4507 105.92 77.9166 105.607 76.8477 104.979C67.4437 99.4601 41.5977 82.1213 41.5977 58.2824V35.0553C41.5977 31.1723 41.5977 29.2307 42.2289 27.5618C42.7865 26.0875 43.6927 24.772 44.869 23.729C46.2006 22.5484 48.0076 21.8667 51.6214 20.5032L77.5054 10.7378L77.5077 10.737C78.5094 10.3589 79.0111 10.1699 79.5266 10.0949C79.985 10.0283 80.4503 10.0283 80.9079 10.0949C81.4234 10.1699 81.9251 10.3589 82.9268 10.737L82.9291 10.7378L108.814 20.5032C112.427 21.8667 114.234 22.5484 115.565 23.729C116.742 24.772 117.648 26.0875 118.206 27.5618C118.837 29.2307 118.837 31.1723 118.837 35.0553V58.2824Z" stroke="#FF00FF" stroke-width="5.61741" stroke-linecap="round" stroke-linejoin="round"/>
<path d="M158.599 104.104C159.158 113.092 124.523 120.378 81.239 120.378C37.9541 120.378 2.41127 113.092 1.85156 104.104" stroke="#FF00FF" stroke-width="2.10653" stroke-linecap="round"/>
<path d="M144.702 88.627C145.165 96.0758 116.465 102.114 80.5972 102.114C44.729 102.114 15.2763 96.0758 14.8125 88.627" stroke="#B2A7FB" stroke-width="2.10653" stroke-linecap="round"/>
</g>
<defs>
<linearGradient id="paint0_linear_523_775" x1="69.3094" y1="74.141" x2="75.7894" y2="142.744" gradientUnits="userSpaceOnUse">
<stop stop-color="#6E58FE"/>
<stop offset="0.654155" stop-color="#6E58FE" stop-opacity="0"/>
</linearGradient>
<clipPath id="clip0_523_775">
<rect width="160" height="122.13" fill="white"/>
</clipPath>
</defs>
</svg>
