<svg width="100" height="100" viewBox="0 0 100 100" fill="none" xmlns="http://www.w3.org/2000/svg">
<path fill-rule="evenodd" clip-rule="evenodd" d="M81.4808 0.356416C82.3375 0.711226 83.0696 1.31212 83.5847 2.08308C84.0998 2.85405 84.3747 3.76046 84.3746 4.68767V15.6252H95.3121C96.2386 15.626 97.1441 15.9013 97.9142 16.4165C98.6843 16.9316 99.2844 17.6634 99.6389 18.5194C99.9933 19.3754 100.086 20.3173 99.9056 21.226C99.7251 22.1348 99.2793 22.9696 98.6246 23.6252L79.8746 42.3752C78.9964 43.2545 77.8049 43.7491 76.5621 43.7502H74.2058C75.447 48.5579 75.2283 53.6263 73.5778 58.3093C71.9273 62.9923 68.9196 67.0777 64.9383 70.0447C60.957 73.0118 56.1823 74.7261 51.2229 74.9691C46.2635 75.2121 41.3441 73.9728 37.0918 71.4092C32.8394 68.8455 29.4468 65.0737 27.3464 60.5745C25.2459 56.0753 24.5329 51.0526 25.298 46.1465C26.0632 41.2405 28.2719 36.6735 31.6427 33.0276C35.0135 29.3817 39.3935 26.8221 44.2246 25.6752C45.4346 25.3876 46.7094 25.5924 47.7684 26.2447C48.8274 26.897 49.5839 27.9432 49.8715 29.1533C50.1591 30.3633 49.9542 31.6381 49.3019 32.6971C48.6496 33.7561 47.6034 34.5126 46.3933 34.8002C43.2699 35.5397 40.4501 37.2233 38.3172 39.6219C36.1843 42.0205 34.8419 45.0178 34.4724 48.2062C34.1029 51.3946 34.7244 54.6195 36.2522 57.4423C37.7801 60.2651 40.1402 62.5489 43.0117 63.9831C45.8832 65.4173 49.1267 65.9324 52.3013 65.4584C55.4758 64.9843 58.4274 63.5441 60.7546 61.3335C63.0818 59.1229 64.6717 56.2493 65.3082 53.1033C65.9447 49.9573 65.5969 46.6915 64.3121 43.7502H62.8746L53.3121 53.3127C52.8829 53.7732 52.3654 54.1426 51.7905 54.3988C51.2155 54.655 50.5947 54.7928 49.9654 54.8039C49.336 54.815 48.7108 54.6992 48.1271 54.4634C47.5434 54.2277 47.0132 53.8768 46.5681 53.4317C46.123 52.9865 45.7721 52.4563 45.5363 51.8727C45.3006 51.289 45.1848 50.6638 45.1959 50.0344C45.207 49.405 45.3448 48.7843 45.601 48.2093C45.8572 47.6343 46.2265 47.1168 46.6871 46.6877L56.2496 37.1252V23.4377C56.2507 22.1949 56.7453 21.0034 57.6246 20.1252L76.3746 1.37517C77.0297 0.719594 77.8644 0.27292 78.7733 0.0915927C79.6821 -0.0897349 80.6243 0.00242146 81.4808 0.356416ZM65.6246 25.3814V34.3752H74.6246L83.9996 25.0002H74.9996V16.0002L65.6246 25.3814ZM30.1246 14.5627C37.445 10.4565 45.8576 8.71851 54.2058 9.58767C54.8181 9.65128 55.4369 9.59366 56.027 9.41812C56.617 9.24257 57.1667 8.95253 57.6446 8.56456C58.1225 8.17658 58.5194 7.69827 58.8124 7.15693C59.1055 6.61559 59.2891 6.02183 59.3527 5.40954C59.4163 4.79725 59.3587 4.17843 59.1832 3.58841C59.0076 2.99839 58.7176 2.44872 58.3296 1.97079C57.9416 1.49285 57.4633 1.09602 56.922 0.80294C56.3806 0.50986 55.7869 0.326275 55.1746 0.262666C44.8988 -0.806528 34.5441 1.33365 25.5341 6.38894C16.5241 11.4442 9.30134 19.1664 4.8588 28.4938C0.41626 37.8211 -1.02789 48.2956 0.724896 58.4771C2.47768 68.6586 7.34135 78.0472 14.6472 85.352C21.953 92.6568 31.3423 97.5192 41.524 99.2705C51.7058 101.022 62.1801 99.5763 71.5068 95.1324C80.8335 90.6886 88.5547 83.4647 93.6087 74.454C98.6628 65.4433 100.801 55.0883 99.7308 44.8127C99.6672 44.2004 99.4836 43.6066 99.1906 43.0653C98.8975 42.5239 98.5006 42.0456 98.0227 41.6576C97.5448 41.2697 96.9951 40.9796 96.4051 40.8041C95.8151 40.6285 95.1963 40.5709 94.584 40.6345C93.9717 40.6982 93.3779 40.8817 92.8366 41.1748C92.2952 41.4679 91.8169 41.8647 91.4289 42.3427C91.041 42.8206 90.7509 43.3703 90.5754 43.9603C90.3998 44.5503 90.3422 45.1691 90.4058 45.7814C91.1671 53.0735 89.9408 60.4357 86.857 67.0873C83.7732 73.7389 78.9467 79.4319 72.8895 83.5628C66.8323 87.6936 59.7701 90.1083 52.4517 90.5507C45.1334 90.9931 37.8317 89.4467 31.321 86.0756C24.8103 82.7045 19.3332 77.6343 15.4706 71.4026C11.608 65.1709 9.50377 58.01 9.38112 50.6793C9.25846 43.3487 11.1219 36.1214 14.7739 29.764C18.4259 23.4066 23.7303 18.156 30.1246 14.5689V14.5627Z" fill="#004D95"/>
</svg>
