<svg width="100" height="100" viewBox="0 0 100 100" fill="none" xmlns="http://www.w3.org/2000/svg">
<path d="M50 100C43.0833 100 36.5833 98.6866 30.5 96.06C24.4167 93.4333 19.125 89.8716 14.625 85.375C10.125 80.8783 6.56334 75.5866 3.94 69.5C1.31667 63.4133 0.00333966 56.9133 6.32911e-06 50C-0.003327 43.0867 1.31001 36.5867 3.94 30.5C6.57 24.4133 10.1317 19.1217 14.625 14.625C19.1183 10.1283 24.41 6.56667 30.5 3.94C36.59 1.31333 43.09 0 50 0C56.91 0 63.41 1.31333 69.5 3.94C75.59 6.56667 80.8816 10.1283 85.375 14.625C89.8683 19.1217 93.4316 24.4133 96.0649 30.5C98.6983 36.5867 100.01 43.0867 99.9999 50C99.9899 56.9133 98.6766 63.4133 96.0599 69.5C93.4433 75.5866 89.8816 80.8783 85.375 85.375C80.8683 89.8716 75.5766 93.435 69.5 96.065C63.4233 98.695 56.9233 100.007 50 100ZM49.875 85C51.0416 85 52.0633 84.5633 52.94 83.69C53.8166 82.8167 54.2533 81.795 54.25 80.625V78.75C58.4166 78 62 76.375 65 73.875C68 71.375 69.5 67.6666 69.5 62.75C69.5 59.25 68.5 56.0416 66.5 53.125C64.5 50.2083 60.5 47.6667 54.5 45.5C49.5 43.8333 46.0416 42.375 44.125 41.125C42.2083 39.875 41.25 38.1667 41.25 36C41.25 33.8333 42.0216 32.125 43.565 30.875C45.1083 29.625 47.3366 29 50.25 29C51.9166 29 53.375 29.2917 54.625 29.875C55.875 30.4583 56.9166 31.25 57.75 32.25C58.5833 33.25 59.5216 33.9367 60.565 34.31C61.6083 34.6833 62.5866 34.6633 63.5 34.25C64.75 33.75 65.605 32.895 66.065 31.685C66.525 30.475 66.42 29.3717 65.75 28.375C64.4166 26.4583 62.7716 24.8333 60.815 23.5C58.8583 22.1667 56.7533 21.4167 54.5 21.25V19.375C54.5 18.2083 54.0633 17.1883 53.19 16.315C52.3166 15.4417 51.295 15.0033 50.125 15C48.955 14.9967 47.935 15.435 47.065 16.315C46.195 17.195 45.7566 18.215 45.75 19.375V21.25C41.5833 22.1667 38.3333 24 36 26.75C33.6666 29.5 32.5 32.5833 32.5 36C32.5 39.9167 33.6466 43.0833 35.94 45.5C38.2333 47.9167 41.8366 50 46.75 51.75C52 53.6667 55.6466 55.375 57.69 56.875C59.7333 58.375 60.7533 60.3333 60.75 62.75C60.75 65.5 59.7716 67.5216 57.815 68.815C55.8583 70.1083 53.5033 70.7533 50.75 70.75C48.5833 70.75 46.625 70.23 44.875 69.19C43.125 68.15 41.6666 66.5866 40.5 64.5C39.8333 63.3333 38.9583 62.5416 37.875 62.125C36.7916 61.7083 35.7083 61.7083 34.625 62.125C33.4583 62.5416 32.6033 63.3333 32.06 64.5C31.5167 65.6666 31.4967 66.7916 32 67.875C33.3333 70.7083 35.125 73.0216 37.375 74.815C39.625 76.6083 42.3333 77.8366 45.5 78.5V80.625C45.5 81.7916 45.9383 82.8133 46.815 83.69C47.6916 84.5667 48.7116 85.0033 49.875 85Z" fill="#00A946"/>
</svg>
