<svg width="80" height="100" viewBox="0 0 80 100" fill="none" xmlns="http://www.w3.org/2000/svg">
<path fill-rule="evenodd" clip-rule="evenodd" d="M35 0C31.0218 0 27.2064 1.58035 24.3934 4.3934C21.5804 7.20644 20 11.0218 20 15V85C20 88.9782 21.5804 92.7936 24.3934 95.6066C27.2064 98.4196 31.0218 100 35 100H65C68.9782 100 72.7936 98.4196 75.6066 95.6066C78.4196 92.7936 80 88.9782 80 85V15C80 11.0218 78.4196 7.20644 75.6066 4.3934C72.7936 1.58035 68.9782 0 65 0H35ZM41.465 31.465C42.4026 30.5276 43.6742 30.0011 45 30.0011C46.3258 30.0011 47.5974 30.5276 48.535 31.465L63.535 46.465C64.4724 47.4026 64.9989 48.6742 64.9989 50C64.9989 51.3258 64.4724 52.5974 63.535 53.535L48.535 68.535C47.592 69.4458 46.329 69.9498 45.018 69.9384C43.707 69.927 42.4529 69.4011 41.5259 68.4741C40.5989 67.5471 40.073 66.293 40.0616 64.982C40.0502 63.671 40.5542 62.408 41.465 61.465L47.93 55H5C3.67392 55 2.40215 54.4732 1.46447 53.5355C0.526785 52.5979 0 51.3261 0 50C0 48.6739 0.526785 47.4021 1.46447 46.4645C2.40215 45.5268 3.67392 45 5 45H47.93L41.465 38.535C40.5276 37.5974 40.0011 36.3258 40.0011 35C40.0011 33.6742 40.5276 32.4026 41.465 31.465Z" fill="#F800EA"/>
</svg>
