<svg width="55" height="56" viewBox="0 0 55 56" fill="none" xmlns="http://www.w3.org/2000/svg">
<g clip-path="url(#clip0_168_795)">
<path d="M51.5655 25.528C50.843 25.5726 50.114 25.528 49.451 25.528C47.3534 14.8681 41.0353 8.54053 30.3946 6.47526C30.3946 5.96957 30.3946 5.43626 30.3946 4.90507C30.4053 4.35341 30.3862 3.80158 30.3372 3.252C30.2537 2.62926 29.9541 2.0556 29.4907 1.63115C29.0274 1.20671 28.4296 0.958424 27.8019 0.929642C27.1741 0.896252 26.554 1.08026 26.0461 1.45066C25.5382 1.82105 25.1736 2.35519 25.0136 2.96304C24.9405 3.3474 24.9077 3.73836 24.9159 4.12953C24.901 4.94331 24.9159 5.75709 24.9159 6.47951C14.239 8.5894 7.93363 14.9021 5.85734 25.5344C5.38767 25.5344 4.87551 25.5344 4.36972 25.5344C3.78247 25.5208 3.19493 25.5414 2.61007 25.596C2.23849 25.6494 1.88222 25.7801 1.56422 25.9796C1.24622 26.1791 0.973532 26.443 0.763721 26.7542C0.553911 27.0655 0.411628 27.4172 0.346037 27.7868C0.280446 28.1563 0.293001 28.5355 0.382893 28.9C0.699544 30.194 1.73875 30.9929 3.16474 31.0247C4.08707 31.0396 5.00939 31.0247 5.85521 31.0247C7.95275 41.6825 14.2666 47.9888 24.9116 50.0774C24.9116 50.9273 24.9116 51.8261 24.9116 52.7313C24.9116 53.6768 25.2198 54.4884 25.9955 55.0558C26.3534 55.2794 26.7295 55.4727 27.1197 55.6337H28.1823C28.5714 55.4718 28.9467 55.2786 29.3044 55.0558C30.0822 54.4927 30.3903 53.6789 30.3903 52.7355V50.0753C41.0417 47.9867 47.3577 41.6676 49.4446 31.0205C50.114 31.0205 50.843 30.9822 51.5698 31.0205C53.2699 31.1225 54.4621 30.4765 55.0041 28.8044V27.742C54.4621 26.0677 53.2678 25.426 51.5655 25.528ZM40.878 30.9525C41.6046 31.0128 42.3338 31.0348 43.0627 31.0184C43.2901 31.0184 43.5175 31.0184 43.7513 31.0184C42.9395 37.3459 37.3184 43.4015 30.3946 44.3916C30.3946 43.6054 30.4094 42.8278 30.3946 42.0544C30.3606 40.5118 29.3957 39.4197 27.9379 39.2412C27.2589 39.1645 26.5761 39.3489 26.028 39.7568C25.4798 40.1648 25.1074 40.7658 24.986 41.4382C24.9285 41.951 24.9051 42.467 24.9159 42.9829C24.9053 43.4418 24.9159 43.9008 24.9159 44.364C19.0908 43.6883 12.6515 38.4253 11.5273 31.0226C12.2052 31.0226 12.8747 31.0354 13.5441 31.0226C13.9524 31.0253 14.3596 30.9803 14.7576 30.8887C15.3442 30.7201 15.8564 30.3577 16.2107 29.8608C16.5649 29.3638 16.7404 28.7615 16.7085 28.1521C16.6192 26.805 15.6735 25.7235 14.3474 25.6023C13.4336 25.5174 12.5049 25.5875 11.5847 25.5875C12.184 19.908 17.3673 13.3276 24.9244 12.1569C24.9244 13.0068 24.9052 13.7929 24.9244 14.5897C24.9584 15.7605 25.496 16.6444 26.582 17.1118C27.0534 17.3313 27.5796 17.4049 28.0931 17.3231C28.6066 17.2413 29.0839 17.0079 29.4637 16.6529C30.1289 16.0834 30.3924 15.327 30.3946 14.4665C30.3946 13.7058 30.3946 12.9452 30.3946 12.1781C36.9826 13.0748 42.8566 18.8711 43.7598 25.5471C42.9735 25.5471 42.1956 25.5322 41.4221 25.5471C39.909 25.5811 38.8102 26.5372 38.6254 27.963C38.5346 28.6569 38.7198 29.3588 39.141 29.9177C39.5622 30.4767 40.1859 30.8482 40.878 30.9525Z" fill="#F800EA"/>
</g>
<defs>
<clipPath id="clip0_168_795">
<rect width="54.6977" height="54.6977" fill="white" transform="translate(0.306641 0.929688)"/>
</clipPath>
</defs>
</svg>
